<?xml version="1.0" encoding="utf-8"?>
<!-- Generator: Adobe Illustrator 24.1.2, SVG Export Plug-In . SVG Version: 6.00 Build 0)  -->
<svg version="1.1" id="Camada_1" xmlns="http://www.w3.org/2000/svg" xmlns:xlink="http://www.w3.org/1999/xlink" x="0px" y="0px"
	 viewBox="0 0 414.4 316.8" style="enable-background:new 0 0 414.4 316.8;" xml:space="preserve">
<style type="text/css">
	.st0{fill-rule:evenodd;clip-rule:evenodd;fill:#0C4D8A;}
	.st1{fill:#0C4D8A;}
</style>
<path class="st0" d="M154.6,256.7l21.3,0.2c1.7-25.4-2.3-41.9-2.1-61.3l19.2,61.3l24.6,0l0.3-101.3l-21.2,0
	c-1,22.3,2.3,46.6,1.7,59.5l-19.1-59.5l-24.4-0.1L154.6,256.7z"/>
<path class="st0" d="M106.2,155.7l-24-0.2c-0.8,21.4-0.5,46.1,0.2,67.5c0.8,23.7,7.1,36.4,31.9,36.2c24.8-0.1,31.7-12.3,31.9-36.3
	c0.1-10.4,1.3-61.4-0.4-67.5l-23,0c-0.9,5.1,0,57.9-0.3,68.9c-0.2,7.6-0.1,15.4-7.6,15.8c-8.4,0.4-8.2-7.4-8.5-14.7
	C105.5,205.3,106.8,177.6,106.2,155.7z"/>
<path class="st0" d="M375,222.5l-21.7-0.1c-2.3,21.5,6.6,34.9,25.9,36.6c21.1,1.9,34-8.2,35.2-28c1.4-23.1-11.9-29.1-25.5-37.7
	c-24.1-15.3-6.6-27.4,0.1-20.8c2.9,2.9,2.9,7.8,3.3,12.7l21,0.2c2.9-18.4-8.4-32.3-29.6-32.4c-19.7-0.1-31.5,12.5-29.1,33.2
	c2.9,25.1,32.2,27.1,36.5,41.4c3.8,12.5-10.4,17.2-14.4,9C374.8,232.9,375.2,227.3,375,222.5z"/>
<path class="st0" d="M39.4,222.7l-21.3,0c-2.1,9.8,0.2,28.9,13.7,34.2c13.5,5.3,31.5,2.2,37.7-7.5c6.1-9.5,4.3-31.5,4.3-44.4
	c0-16.4,0.2-33,0-49.4l-23.8-0.1c0.1,19.1,0,38,0,56.8c0,4.9,0.9,24.7-1.5,27.4c-3.1,3.5-7.2,0.5-7.9-3.5
	C39.7,231.9,40.5,227.1,39.4,222.7z"/>
<polygon class="st0" points="219.7,163 219.8,175.1 238.6,175.3 238.7,256.9 262.6,256.8 262.7,175.4 282.5,175.3 282.5,155.7 
	219.8,155.5 "/>
<path class="st0" d="M309.1,153.5c-29.4,4.6-27.5,30.4-27.1,60.2c0.2,13.3,0.7,27.9,8.1,35.6c7.5,8,18.7,11.7,33.4,9.4
	c28.3-4.3,26.9-31.7,26.4-60.4c-0.2-13.4-0.5-26.8-8.2-35.3C334.6,155.2,323.1,151.3,309.1,153.5L309.1,153.5z M312.9,172.7
	c15.5-4.6,12.7,18.8,12.7,29.7c0,10.2,2.2,34.6-6.2,37.2c-16.2,5-13.3-19.1-13.3-29.8c0-7.3-0.2-14.8,0.2-22
	C306.8,181.2,306.7,174.6,312.9,172.7z"/>
<path class="st0" d="M113,117.8c-0.8,4.7-10.9,11.3-14.6,13.8l15,6.3c4.9,1.4,13.3,4.2,17.2,1.5c0-3.8-7.8-12.8-5.8-27.6
	c2.3-16.8,17.3-27.2,12-56.3c-1.5-8.2-1.1-6.2-3.8-13.6c-1.6-4.2-3.7-7.8-6.1-11.4c-18.3-27.2-60.8-42.3-96.7-19
	C16.9,20.1,5,34.6,1.5,51.7c-12.9,63.9,59.2,99.7,105.9,69C109.3,119.5,110.2,118.1,113,117.8L113,117.8z M31.5,108.6
	c1.9-5.2,4.6-8,3.7-15.5c-0.5-4.6-3.6-9.5-5.4-14.3C17.5,44.8,55,15.4,86.8,30.5c16.3,7.7,30.5,28.5,19.6,51.8
	C100.5,95,86,105.7,71.1,105.6c-14.4-0.1-9.2-1.2-17.4-2.2l-0.8,0.9c-2.6,3.1-4.2,3.4-9.3,4.6C35.2,110.7,35.9,111.1,31.5,108.6
	L31.5,108.6z M56.5,84.3c-2.2-4.8-1.1-13.2-1.1-19.2c0-19.3,0.2-16.2,18.7-5.6c18.2,10.3,15.1,8-9,22.3
	C62.4,83.2,60.3,85.1,56.5,84.3z"/>
<path class="st0" d="M196.2,141.5c18.7,0.1,24.9,0.2,25.2-20.5c0.4-23.6-11-20.4-24.9-20.5L196.2,141.5L196.2,141.5z M200.9,113
	l0-8.3c13.8-0.7,15.5,1.9,15.5,15.6c0,15.1-1.5,17.6-15.5,17L200.9,113z"/>
<polygon class="st0" points="172.9,141.5 193.3,141.5 193.4,137.4 177.5,137.1 177.4,122.2 192,122.1 192.1,118.1 177.5,117.9 
	177.4,105 193.1,104.9 193.3,100.7 172.9,100.6 "/>
<polygon class="st0" points="224.6,141.3 245,141.6 245.2,137.2 229.3,137.2 229.3,122.1 243.9,122.1 244,118.2 229.3,117.9 
	229.3,104.9 244.9,104.9 245,100.5 224.8,100.6 "/>
<path class="st0" d="M144.3,141.5l4.5,0l0.2-17.9c20.4-1.2,11.4,5.5,15.8,17.8l5.4,0.1c-4.3-9.9,1.4-16.2-7.4-20.1l1.6-1.8
	c1.4-1.3,3.1-2.3,3.8-5.5c3.4-16.4-15.2-13.6-23.6-13.7L144.3,141.5L144.3,141.5z M148.9,119.2l-0.1-14.5c7.8-0.3,15.2-1.2,14.7,7.6
	C163.2,120,155.9,119.5,148.9,119.2z"/>
<g>
	<path class="st1" d="M54.4,289.7c0-3.9-0.2-5.7-0.3-6.9H57l0.1,3h0.1c2.1-2.8,4.8-3.4,7.1-3.4c4.9,0,9.2,3.4,9.2,11.5
		c0,8.5-5.1,11.7-10,11.7c-3.4,0-5.1-1.4-6-2.8h-0.1v11.4h-3V289.7z M57.4,296.9c0,0.6,0,1.2,0.1,1.8c1.2,4.3,4.4,5,6.1,5
		c5.2,0,6.8-4.7,6.8-9.8c0-4.9-1.7-9.8-6.9-9.8c-3.1,0-5.8,2.8-6,5.4c-0.1,0.6-0.1,1.2-0.1,1.8V296.9z"/>
	<path class="st1" d="M80,272.9h3v32.3h-3V272.9z"/>
	<path class="st1" d="M104,305.2l-0.3-2.5h-0.2c-1.2,1.7-3.4,2.8-6.2,2.8c-4.1,0-7.3-2.3-7.3-6.2c0-5.4,6-7.9,13.6-8v-0.8
		c0-3.8-0.9-6.4-5.8-6.4c-1.7,0-3.4,0.4-4.7,1.1l-0.8-1.5c1.1-0.7,3.7-1.3,6.2-1.3c4.5,0,8.1,1.8,8.1,7.1v10.6c0,1.6,0,3.6,0.3,5
		H104z M103.5,293.1c-2.6,0-10.5,0.1-10.5,6.1c0,3.4,2.4,4.5,4.6,4.5c2.8,0,5.1-1.5,5.7-4.2c0.1-0.5,0.1-1,0.1-1.4V293.1z"/>
	<path class="st1" d="M118,276.8v5.9h6.3v1.7H118v15.2c0,3.1,1.5,4,3.5,4c0.8,0,1.5,0,2-0.1l0.3,1.5c-0.8,0.2-1.6,0.3-3,0.3
		c-1.8,0-3.4-0.4-4.4-1.3c-1-0.9-1.5-2.3-1.5-5.1v-14.5h-4.2v-1.7h4.2v-5.1L118,276.8z"/>
	<path class="st1" d="M141.3,305.2l-0.3-2.5h-0.2c-1.2,1.7-3.4,2.8-6.2,2.8c-4.1,0-7.3-2.3-7.3-6.2c0-5.4,6-7.9,13.6-8v-0.8
		c0-3.8-0.9-6.4-5.8-6.4c-1.7,0-3.4,0.4-4.7,1.1l-0.8-1.5c1.1-0.7,3.7-1.3,6.2-1.3c4.5,0,8.1,1.8,8.1,7.1v10.6c0,1.6,0,3.6,0.3,5
		H141.3z M140.8,293.1c-2.6,0-10.5,0.1-10.5,6.1c0,3.4,2.4,4.5,4.6,4.5c2.8,0,5.1-1.5,5.7-4.2c0.1-0.5,0.1-1,0.1-1.4V293.1z"/>
	<path class="st1" d="M152.8,305.2v-20.7h-4v-1.7h4v-1.7c0-2.3,0.4-4.9,2.6-6.8c1.9-1.5,4.5-1.8,5.8-1.8c1.5,0,2.6,0.2,3.5,0.6
		l-0.8,1.6c-0.6-0.2-1.5-0.4-3-0.4c-4.4,0-5.1,3.3-5.1,6.8v1.7h6.3v1.7h-6.3v20.7H152.8z"/>
	<path class="st1" d="M183.4,294c0,8.3-4.9,11.6-10.1,11.6c-4.7,0-9.6-3.3-9.6-11.6s4.9-11.6,10.1-11.6
		C178.5,282.4,183.4,285.7,183.4,294z M166.8,294c0,3.6,1,9.8,6.8,9.8c5.6,0,6.7-6.2,6.7-9.8s-1-9.8-6.8-9.8
		C167.9,284.2,166.8,290.3,166.8,294z"/>
	<path class="st1" d="M189.8,287.9c0-1.7-0.2-3.8-0.3-5.2h2.8l0.1,3.6h0.1c0.8-2,3.7-4,7.2-4c0.2,0,0.4,0,0.6,0v2.2
		c-0.1,0-0.3,0-0.6,0c-4.3,0-6.8,2.8-7.1,5.6c-0.1,0.7-0.1,1.3-0.1,1.9v13.1h-3V287.9z"/>
	<path class="st1" d="M204.9,287.9c0-2.8-0.2-3.6-0.3-5.2h2.7l0.1,2.8h0.1c1.2-1.9,3.6-3.2,7.2-3.2c2.7,0,5.5,0.9,6.8,3.6h0.1
		c0.9-1.3,2-2.2,3.2-2.8c1.3-0.6,2.8-0.9,4.6-0.9c3.6,0,7.6,1.6,7.6,7.5v15.2h-3v-14.5c0-3.2-0.8-6.5-5.6-6.5c-2.6,0-5,1.6-5.8,4.2
		c-0.2,0.7-0.2,1.5-0.2,2.3v14.5h-3V290c0-3-0.9-5.9-5.5-5.9c-2.7,0-5.3,1.6-6,4.7c-0.1,0.7-0.1,1.4-0.1,2.1v14.3h-3V287.9z"/>
	<path class="st1" d="M257.3,305.2l-0.3-2.5h-0.2c-1.2,1.7-3.4,2.8-6.2,2.8c-4.1,0-7.3-2.3-7.3-6.2c0-5.4,6-7.9,13.6-8v-0.8
		c0-3.8-0.9-6.4-5.8-6.4c-1.7,0-3.4,0.4-4.7,1.1l-0.8-1.5c1.1-0.7,3.7-1.3,6.2-1.3c4.5,0,8.1,1.8,8.1,7.1v10.6c0,1.6,0,3.6,0.3,5
		H257.3z M256.9,293.1c-2.6,0-10.5,0.1-10.5,6.1c0,3.4,2.4,4.5,4.6,4.5c2.8,0,5.1-1.5,5.7-4.2c0.1-0.5,0.1-1,0.1-1.4V293.1z"/>
	<path class="st1" d="M296.2,272.9v27.7c0,1.1,0.2,3.7,0.3,4.6h-2.6l-0.3-3h-0.3c-1,1.6-3.2,3.4-7,3.4c-4.7,0-9.3-3.4-9.3-11.5
		c0-8,4.9-11.7,9.6-11.7c2.1,0,4.8,0.6,6.4,2.9h0.1v-12.4H296.2z M293.2,291.2c0-0.5,0-1.1-0.1-1.6c-0.3-2.9-3-5.5-6-5.5
		c-5.2,0-6.9,4.8-6.9,9.8c0,5,1.9,9.8,6.5,9.8c1.9,0,4.9-0.7,6.4-5c0.1-0.5,0.1-1,0.1-1.5V291.2z"/>
	<path class="st1" d="M308.1,277c0,1.1-0.8,1.7-2.4,1.7c-1.2,0-2.1-0.7-2.1-1.7c0-1,0.9-1.7,2.2-1.7
		C307.3,275.3,308.1,276,308.1,277z M304.3,305.2v-22.4h3v22.4H304.3z"/>
	<path class="st1" d="M333.2,282.8c-0.1,1.2-0.3,3-0.3,6.9V302c0,6.6-1,8.6-2.8,10.1c-1.7,1.5-4.6,2.3-7.6,2.3
		c-2.7,0-5.3-0.5-6.7-1.1l1-1.7c1.1,0.4,3.4,1,6.1,1c4,0,7.1-1.6,7.1-7.7v-2.8h-0.1c-1.1,2-3.6,3-6.6,3c-4.9,0-9.4-3.8-9.4-11.2
		c0-8.8,5.9-11.6,10.1-11.6c4.1,0,5.4,2,6.2,3h0.1l0.1-2.7H333.2z M330,290.2c0-0.6,0-1.1-0.2-1.6c-0.7-1.9-2.1-4.4-6-4.4
		c-4.2,0-6.8,3.8-6.8,9.6c0,6.7,3.3,9.6,6.9,9.6c1.9,0,4.6-0.6,5.9-4.2c0.3-0.8,0.3-1.5,0.3-2.2V290.2z"/>
	<path class="st1" d="M344.6,277c0,1.1-0.8,1.7-2.4,1.7c-1.2,0-2.1-0.7-2.1-1.7c0-1,0.9-1.7,2.2-1.7
		C343.8,275.3,344.6,276,344.6,277z M340.9,305.2v-22.4h3v22.4H340.9z"/>
	<path class="st1" d="M356,276.8v5.9h6.3v1.7H356v15.2c0,3.1,1.5,4,3.5,4c0.8,0,1.5,0,2-0.1l0.3,1.5c-0.8,0.2-1.6,0.3-3,0.3
		c-1.8,0-3.4-0.4-4.4-1.3c-1-0.9-1.5-2.3-1.5-5.1v-14.5h-4.2v-1.7h4.2v-5.1L356,276.8z"/>
	<path class="st1" d="M379.3,305.2l-0.3-2.5h-0.2c-1.2,1.7-3.4,2.8-6.2,2.8c-4.1,0-7.3-2.3-7.3-6.2c0-5.4,6-7.9,13.6-8v-0.8
		c0-3.8-0.9-6.4-5.8-6.4c-1.7,0-3.4,0.4-4.7,1.1l-0.8-1.5c1.1-0.7,3.7-1.3,6.2-1.3c4.5,0,8.1,1.8,8.1,7.1v10.6c0,1.6,0,3.6,0.3,5
		H379.3z M378.8,293.1c-2.6,0-10.5,0.1-10.5,6.1c0,3.4,2.4,4.5,4.6,4.5c2.8,0,5.1-1.5,5.7-4.2c0.1-0.5,0.1-1,0.1-1.4V293.1z"/>
	<path class="st1" d="M390,272.9h3v32.3h-3V272.9z"/>
</g>
</svg>
