<?xml version="1.0" encoding="utf-8"?>
<!-- Generator: Adobe Illustrator 24.1.2, SVG Export Plug-In . SVG Version: 6.00 Build 0)  -->
<svg version="1.1" id="Layer_1" xmlns="http://www.w3.org/2000/svg" xmlns:xlink="http://www.w3.org/1999/xlink" x="0px" y="0px"
	 viewBox="0 0 138 140.5" style="enable-background:new 0 0 138 140.5;" xml:space="preserve">
<style type="text/css">
	.st0{fill-rule:evenodd;clip-rule:evenodd;fill:#FFFFFF;}
</style>
<path class="st0" d="M113,117.8c-0.8,4.7-10.9,11.3-14.6,13.8l15,6.3c4.9,1.4,13.3,4.2,17.2,1.5c0-3.8-7.8-12.8-5.8-27.6
	c2.3-16.8,17.3-27.2,12-56.3c-1.5-8.2-1.1-6.2-3.8-13.6c-1.6-4.2-3.7-7.8-6.1-11.4c-18.3-27.2-60.8-42.3-96.7-19
	C16.9,20.1,5,34.6,1.5,51.7c-12.9,63.9,59.2,99.7,105.9,69C109.3,119.5,110.2,118.1,113,117.8L113,117.8z M31.5,108.6
	c1.9-5.2,4.6-8,3.7-15.5c-0.5-4.6-3.6-9.5-5.4-14.3c-12.3-34,25.2-63.4,57-48.3c16.3,7.7,30.5,28.5,19.6,51.8
	C100.5,95,86,105.7,71.1,105.6c-14.4-0.1-9.2-1.2-17.4-2.2l-0.8,0.9c-2.6,3.1-4.2,3.4-9.3,4.6C35.2,110.7,35.9,111.1,31.5,108.6
	L31.5,108.6z M56.5,84.3c-2.2-4.8-1.1-13.2-1.1-19.2c0-19.3,0.2-16.2,18.7-5.6c18.2,10.3,15.1,8-9,22.3
	C62.4,83.2,60.3,85.1,56.5,84.3z"/>
</svg>
