<?xml version="1.0" standalone="no"?>
<!DOCTYPE svg PUBLIC "-//W3C//DTD SVG 20010904//EN"
 "http://www.w3.org/TR/2001/REC-SVG-20010904/DTD/svg10.dtd">
<svg version="1.0" xmlns="http://www.w3.org/2000/svg"
 width="564.000000pt" height="564.000000pt" viewBox="0 0 564.000000 564.000000"
 preserveAspectRatio="xMidYMid meet">
<metadata>
Created by potrace 1.11, written by Peter Selinger 2001-2013
</metadata>
<g transform="translate(0.000000,564.000000) scale(0.100000,-0.100000)"
fill="#000000" stroke="none">
<path d="M2608 5635 c-1 -1 -41 -6 -88 -9 -47 -4 -92 -9 -100 -11 -8 -3 -31
-6 -50 -9 -224 -28 -513 -119 -780 -243 -138 -65 -424 -238 -473 -287 -9 -9
-18 -16 -22 -16 -23 0 -333 -287 -415 -385 -127 -152 -157 -192 -238 -315 -54
-83 -171 -304 -216 -410 -38 -90 -94 -274 -112 -370 -2 -14 -7 -36 -10 -50 -4
-14 -8 -35 -10 -46 -1 -12 -5 -37 -8 -55 -5 -35 -10 -70 -25 -194 -10 -74 -7
-496 3 -555 3 -19 8 -53 11 -75 2 -22 6 -50 9 -61 2 -12 7 -39 11 -60 14 -89
80 -333 105 -389 5 -11 25 -60 45 -110 64 -159 232 -451 311 -541 11 -12 30
-36 44 -54 60 -79 207 -232 315 -329 108 -96 334 -257 465 -330 126 -70 405
-196 445 -201 3 0 25 -9 51 -20 25 -11 55 -22 67 -24 12 -3 54 -14 92 -26 70
-20 170 -45 223 -55 15 -3 36 -7 47 -9 50 -10 243 -35 320 -42 60 -5 362 -5
425 0 107 9 166 16 260 32 120 20 114 19 185 37 33 9 71 18 85 21 35 6 239 74
277 91 17 8 34 15 37 15 6 0 115 49 191 86 88 43 179 95 212 120 17 13 35 24
39 24 4 0 30 17 58 38 90 67 163 101 186 87 9 -5 -20 -71 -48 -108 -25 -34
-224 -227 -233 -227 -4 0 -14 -6 -21 -13 -17 -16 -147 -111 -215 -157 -29 -19
-53 -38 -53 -41 0 -4 26 -17 58 -30 31 -12 80 -32 107 -45 28 -12 79 -34 115
-48 70 -29 82 -34 150 -64 173 -75 320 -120 511 -157 70 -13 232 -15 269 -3
55 18 70 29 70 51 0 25 -36 124 -52 142 -4 5 -8 15 -8 22 0 6 -13 40 -29 75
-55 118 -106 274 -127 382 -2 12 -6 32 -8 46 -21 108 -22 317 -2 460 2 14 5
26 6 28 3 3 4 6 14 57 12 64 88 288 103 306 8 9 15 26 16 38 1 11 5 21 9 21 4
0 8 6 8 13 0 7 8 31 19 53 129 270 219 485 251 599 76 270 95 400 94 645 0
134 -11 307 -20 321 -2 4 -6 26 -9 50 -3 24 -7 53 -9 64 -2 11 -7 40 -11 65
-4 25 -9 54 -12 65 -2 11 -6 34 -9 50 -19 111 -112 377 -187 535 -45 94 -155
283 -169 288 -4 2 -8 8 -8 14 0 9 -59 91 -152 211 -58 75 -310 321 -398 389
-106 81 -228 168 -237 168 -3 0 -14 6 -22 14 -37 33 -282 163 -417 221 -74 32
-257 98 -304 111 -8 2 -49 13 -90 24 -41 11 -84 22 -95 24 -11 2 -51 11 -90
20 -38 8 -90 18 -115 21 -25 3 -58 8 -75 11 -16 3 -50 8 -75 10 -57 5 -467 14
-472 9z m419 -1068 c4 -3 33 -8 63 -12 30 -4 58 -9 61 -11 4 -2 23 -6 44 -10
20 -3 54 -12 76 -19 21 -8 39 -12 39 -9 0 3 6 2 13 -3 6 -4 17 -8 22 -9 19 -4
140 -55 215 -92 67 -32 213 -122 264 -162 114 -90 232 -206 309 -301 53 -66
137 -192 137 -206 0 -6 3 -13 8 -15 19 -8 132 -272 146 -341 2 -12 11 -52 20
-88 33 -138 39 -436 11 -521 -2 -7 -6 -31 -9 -53 -6 -51 -49 -196 -75 -257
-11 -27 -18 -48 -16 -48 3 0 -7 -20 -21 -45 -13 -25 -21 -45 -17 -45 4 0 4 -4
-2 -8 -15 -11 -47 -72 -38 -72 4 0 3 -4 -2 -8 -11 -7 -95 -131 -95 -139 0 -2
-6 -10 -12 -18 -7 -7 -28 -32 -47 -56 -81 -103 -295 -299 -368 -337 -12 -7
-27 -18 -35 -24 -22 -21 -255 -147 -275 -149 -5 0 -23 -7 -41 -15 -28 -11 -81
-28 -124 -40 -5 -1 -9 -2 -10 -4 -5 -3 -31 -9 -68 -15 -19 -3 -42 -8 -50 -11
-35 -13 -137 -18 -315 -18 -236 1 -310 7 -412 38 -45 14 -99 28 -120 31 -93
16 -92 17 -157 -49 -35 -36 -85 -74 -116 -89 -47 -23 -284 -86 -390 -103 -19
-3 -38 -8 -42 -11 -5 -2 -37 -7 -73 -10 -58 -5 -71 -2 -130 26 -36 18 -69 39
-72 47 -3 9 3 34 14 57 100 204 124 285 129 427 5 157 -16 249 -101 435 -140
305 -171 402 -202 615 -9 60 -10 324 -1 380 16 108 57 268 83 325 7 17 21 50
31 75 9 25 22 52 28 60 6 8 20 33 31 55 19 38 61 109 78 130 4 6 25 33 45 61
101 136 284 305 433 400 59 37 213 116 297 152 105 45 310 97 427 108 33 3 61
7 63 9 6 5 340 -2 349 -8z"/>
<path d="M2327 3560 c-15 -17 -27 -38 -27 -46 0 -17 1 -10 -11 -59 -9 -36 -19
-415 -22 -800 -2 -185 11 -302 41 -377 11 -27 13 -27 89 -25 68 3 88 8 153 41
41 21 77 41 80 45 3 3 24 15 47 26 24 11 43 23 43 28 0 4 5 7 11 7 6 0 48 22
93 49 100 59 238 138 288 162 20 11 40 23 43 29 4 6 11 8 16 5 5 -4 9 -1 9 4
0 6 5 11 11 11 6 0 30 14 54 30 24 17 47 30 51 30 14 0 118 74 154 110 41 41
53 77 36 107 -18 32 -53 73 -63 73 -4 0 -19 10 -33 23 -14 13 -32 26 -40 30
-8 4 -24 13 -35 20 -117 71 -216 127 -224 127 -6 0 -11 5 -11 10 0 6 -4 10
-10 10 -8 0 -188 102 -230 130 -8 6 -23 13 -32 16 -10 4 -18 10 -18 15 0 5 -5
9 -10 9 -6 0 -29 12 -52 26 -141 90 -276 155 -332 161 -38 5 -45 2 -69 -27z"/>
</g>
</svg>
