<svg xmlns="http://www.w3.org/2000/svg" width="204" height="272" viewBox="0 0 204 272">
  <path d="M153,131.75 L153,146.625 C153,150.13125 150.13125,153 146.625,153 L57.375,153 C53.86875,153 51,150.13125 51,146.625 L51,131.75 C51,128.24375 53.86875,125.375 57.375,125.375 L146.625,125.375 C150.13125,125.375 153,128.24375 153,131.75 Z M146.625,170 L57.375,170 C53.86875,170 51,172.86875 51,176.375 L51,191.25 C51,194.75625 53.86875,197.625 57.375,197.625 L146.625,197.625 C150.13125,197.625 153,194.75625 153,191.25 L153,176.375 C153,172.86875 150.13125,170 146.625,170 Z M204,70.071875 L204,246.5 C204,260.578125 192.578125,272 178.5,272 L25.5,272 C11.421875,272 0,260.578125 0,246.5 L0,25.5 C0,11.421875 11.421875,0 25.5,0 L133.928125,0 C140.675,0 147.15625,2.709375 151.9375,7.490625 L196.509375,52.0625 C201.290625,56.790625 204,63.325 204,70.071875 Z M136,27.571875 L136,68 L176.428125,68 L136,27.571875 Z M178.5,246.5 L178.5,93.5 L123.25,93.5 C116.184375,93.5 110.5,87.815625 110.5,80.75 L110.5,25.5 L25.5,25.5 L25.5,246.5 L178.5,246.5 Z"/>
</svg>
