<svg xmlns="http://www.w3.org/2000/svg" width="454" height="272" viewBox="0 0 454 272">
  <path d="M367.766667,45.2625 L334.05,11.5458333 C326.587909,4.14956975 316.506546,0 306,0 L145.35,0 C134.866667,0 124.7375,4.17916667 117.3,11.5458333 L83.5833333,45.2625 L0,45.2625 L0,226.383333 L45.3333333,226.383333 C57.8,226.383333 67.8583333,216.325 67.9291667,203.929167 L74.375,203.929167 L134.3,258.045833 C156.1875,275.825 186.575,276.25 209.1,260.7375 C217.954167,268.3875 227.516667,272 238.2125,272 C251.104167,272 263.216667,266.758333 272.779167,255 C288.433333,261.1625 306.920833,256.841667 318.1125,243.1 L336.670833,220.220833 C340.6375,215.333333 343.116667,209.7375 344.391667,203.929167 L385.404167,203.929167 C385.475,216.325 395.604167,226.383333 408,226.383333 L453.333333,226.383333 L453.333333,45.2625 L367.766667,45.2625 Z M34,203.716667 C27.7666667,203.716667 22.6666667,198.616667 22.6666667,192.383333 C22.6666667,186.15 27.7666667,181.05 34,181.05 C40.2333333,181.05 45.3333333,186.15 45.3333333,192.383333 C45.3333333,198.6875 40.2333333,203.716667 34,203.716667 Z M310.25,198.829167 L291.7625,221.6375 C289.779167,224.045833 286.2375,224.470833 283.758333,222.4875 L266.829167,208.745833 L245.579167,234.6 C241.329167,239.770833 234.954167,238 232.829167,236.3 L206.7625,213.9875 L195.7125,227.5875 C185.866667,239.7 167.945833,241.541667 156.541667,232.2625 L87.6208333,169.929167 L68,169.929167 L68,79.1916667 L97.6791667,79.1916667 L141.383333,35.5583333 C142.8,34.9916667 144.004167,34.4958333 145.420833,33.9291667 L185.583333,33.9291667 L158.170833,59.075 C137.345833,78.1291667 136.141667,110.2875 155.054167,130.829167 C165.5375,142.304167 198.404167,160.0125 226.95,133.945833 L232.758333,128.633333 L309.4,190.825 C311.808333,192.808333 312.1625,196.420833 310.25,198.829167 L310.25,198.829167 Z M385.333333,169.929167 L336.316667,169.929167 C334.6875,167.945833 332.845833,166.104167 330.8625,164.475 L258.116667,105.4 L266.970833,97.325 C271.575,93.075 271.929167,85.9208333 267.679167,81.3166667 L259.958333,73.0291667 C255.708333,68.425 248.554167,68.1416667 243.95,72.3208333 L204.85,108.1625 C198.120833,114.325 186.645833,114.820833 180.341667,108.1625 C173.754167,101.15 174.320833,90.3833333 181.191667,84.15 L227.658333,41.5791667 C232.9,36.7625 239.7,34.1416667 246.783333,34.1416667 L306.070833,34 C307.558333,34 308.975,34.5666667 309.966667,35.6291667 L353.670833,79.2625 L385.333333,79.2625 L385.333333,169.929167 L385.333333,169.929167 Z M419.333333,203.716667 C413.1,203.716667 408,198.616667 408,192.383333 C408,186.15 413.1,181.05 419.333333,181.05 C425.566667,181.05 430.666667,186.15 430.666667,192.383333 C430.666667,198.6875 425.566667,203.716667 419.333333,203.716667 Z"/>
</svg>
