<svg xmlns="http://www.w3.org/2000/svg" width="187" height="272" viewBox="0 0 187 272">
  <path d="M178.5,102 L170,102 C165.30375,102 161.5,105.80375 161.5,110.5 L161.5,136 C161.5,175.7375 127.239688,207.623125 86.7053125,203.670625 C51.3771875,200.222812 25.5,168.464688 25.5,132.971875 L25.5,110.5 C25.5,105.80375 21.69625,102 17,102 L8.5,102 C3.80375,102 0,105.80375 0,110.5 L0,131.835 C0,179.45625 33.9840625,221.908438 80.75,228.357813 L80.75,246.5 L51,246.5 C46.30375,246.5 42.5,250.30375 42.5,255 L42.5,263.5 C42.5,268.19625 46.30375,272 51,272 L136,272 C140.69625,272 144.5,268.19625 144.5,263.5 L144.5,255 C144.5,250.30375 140.69625,246.5 136,246.5 L106.25,246.5 L106.25,228.559687 C151.783437,222.312187 187,183.228125 187,136 L187,110.5 C187,105.80375 183.19625,102 178.5,102 Z M93.5,187 C121.666875,187 144.5,164.166875 144.5,136 L144.5,51 C144.5,22.833125 121.666875,0 93.5,0 C65.333125,0 42.5,22.833125 42.5,51 L42.5,136 C42.5,164.166875 65.333125,187 93.5,187 Z M68,51 C68,36.9378125 79.4378125,25.5 93.5,25.5 C107.562187,25.5 119,36.9378125 119,51 L119,136 C119,150.062188 107.562187,161.5 93.5,161.5 C79.4378125,161.5 68,150.062188 68,136 L68,51 Z"/>
</svg>
