<svg xmlns="http://www.w3.org/2000/svg" width="340" height="272" viewBox="0 0 340 272">
  <path d="M68,68 C30.444637,68 0,98.444637 0,136 C0,173.555363 30.444637,204 68,204 C105.555363,204 136,173.555363 136,136 C136,98.444637 105.555363,68 68,68 L68,68 Z M102,144.5 C102,146.063829 100.732266,147.331562 99.1684375,147.331562 L79.3315625,147.331562 L79.3315625,167.168437 C79.3315625,168.732266 78.0638288,170 76.5,170 L59.5,170 C57.9361712,170 56.6684375,168.732266 56.6684375,167.168437 L56.6684375,147.331562 L36.8315625,147.331562 C35.2677337,147.331562 34,146.063829 34,144.5 L34,127.5 C34,125.936171 35.2677337,124.668437 36.8315625,124.668437 L56.6684375,124.668437 L56.6684375,104.831562 C56.6684375,103.267734 57.9361712,102 59.5,102 L76.5,102 C77.2509771,102 77.9711961,102.298324 78.502217,102.829345 C79.033238,103.360366 79.3315625,104.080585 79.3315625,104.831562 L79.3315625,124.668437 L99.1684375,124.668437 C99.9194146,124.668437 100.639634,124.966762 101.170655,125.497783 C101.701676,126.028804 102,126.749023 102,127.5 L102,144.5 Z M34,255 C34,264.388841 41.6111593,272 51,272 L85,272 C94.3888407,272 102,264.388841 102,255 L102,221 L34,221 L34,255 Z M102,17 C102,7.61115925 94.3888407,0 85,0 L51,0 C41.6111593,0 34,7.61115925 34,17 L34,51 L102,51 L102,17 Z M339.527187,235.476562 L279.177187,10.125625 C277.41875,3.559375 270.730312,-1.689375 262.517187,0.53125 L254.309375,2.709375 C251.02625,3.59125 248.182292,6.11291667 245.7775,10.274375 C238.34,13.96125 217.993125,19.4171875 209.6525,19.95375 C205.4875,17.5454167 201.76875,16.7839583 198.49625,17.669375 L190.267187,19.86875 C188.981562,20.2140625 188.035937,20.93125 187,21.505 L187,17 C187,7.61115925 179.388841,0 170,0 L136,0 C126.611159,0 119,7.61115925 119,17 L119,51 L187,51 L241.006875,261.874375 C242.78125,268.440625 249.45375,273.689375 257.65625,271.46875 L265.864062,269.269375 C269.147187,268.3875 271.991146,265.865833 274.395937,261.704375 C281.785625,258.049375 302.116562,252.566875 310.520937,252.025 C314.685937,254.433333 318.404687,255.194792 321.677187,254.309375 L329.90625,252.13125 C338.124687,249.931875 341.290937,242.042812 339.527187,235.476562 Z M268.127187,231.725938 L219.215,49.0715625 L252.056875,40.2740625 L300.969062,222.928438 L268.127187,231.725938 Z M119,68.4303125 C139.516875,83.9640625 153,108.337813 153,136 C153,163.662188 139.516875,188.0625 119,203.569687 L119,204 L187,204 L187,68 L119,68 L119,68.4303125 Z M119,255 C119,264.388841 126.611159,272 136,272 L170,272 C179.388841,272 187,264.388841 187,255 L187,221 L119,221 L119,255 Z"/>
</svg>
