<svg xmlns="http://www.w3.org/2000/svg" width="408" height="272" viewBox="0 0 408 272">
  <path d="M391,0 L79.3333333,0 C64.5589167,0 51.9612083,9.475375 47.2826667,22.6666667 L17,22.6666667 C7.61104167,22.6666667 0,30.2777083 0,39.6666667 L0,232.333333 C0,254.240667 17.7593333,272 39.6666667,272 L391,272 C400.388958,272 408,264.388958 408,255 L408,17 C408,7.61104167 400.388958,0 391,0 Z M34,232.333333 L34,56.6666667 L45.3333333,56.6666667 L45.3333333,232.333333 C45.3333333,235.457792 42.791125,238 39.6666667,238 C36.5422083,238 34,235.457792 34,232.333333 Z M374,238 L78.9239167,238 C79.1888333,236.148417 79.3333333,234.257875 79.3333333,232.333333 L79.3333333,34 L374,34 L374,238 Z M121.833333,153 L218.166667,153 C222.860792,153 226.666667,149.194125 226.666667,144.5 L226.666667,76.5 C226.666667,71.805875 222.860792,68 218.166667,68 L121.833333,68 C117.139208,68 113.333333,71.805875 113.333333,76.5 L113.333333,144.5 C113.333333,149.194125 117.139208,153 121.833333,153 Z M141.666667,96.3333333 L198.333333,96.3333333 L198.333333,124.666667 L141.666667,124.666667 L141.666667,96.3333333 Z M113.333333,195.5 L113.333333,178.5 C113.333333,173.805875 117.139208,170 121.833333,170 L218.166667,170 C222.860792,170 226.666667,173.805875 226.666667,178.5 L226.666667,195.5 C226.666667,200.194125 222.860792,204 218.166667,204 L121.833333,204 C117.139208,204 113.333333,200.194125 113.333333,195.5 Z M249.333333,195.5 L249.333333,178.5 C249.333333,173.805875 253.139208,170 257.833333,170 L331.5,170 C336.194125,170 340,173.805875 340,178.5 L340,195.5 C340,200.194125 336.194125,204 331.5,204 L257.833333,204 C253.139208,204 249.333333,200.194125 249.333333,195.5 Z M249.333333,93.5 L249.333333,76.5 C249.333333,71.805875 253.139208,68 257.833333,68 L331.5,68 C336.194125,68 340,71.805875 340,76.5 L340,93.5 C340,98.194125 336.194125,102 331.5,102 L257.833333,102 C253.139208,102 249.333333,98.194125 249.333333,93.5 Z M249.333333,144.5 L249.333333,127.5 C249.333333,122.805875 253.139208,119 257.833333,119 L331.5,119 C336.194125,119 340,122.805875 340,127.5 L340,144.5 C340,149.194125 336.194125,153 331.5,153 L257.833333,153 C253.139208,153 249.333333,149.194125 249.333333,144.5 Z"/>
</svg>
