<svg xmlns="http://www.w3.org/2000/svg" width="100%" height="auto" viewBox="0 0 720 530">
  <g fill="none" fill-rule="evenodd">
    <rect width="720" height="530" fill="#F2F2F2"/>
    <g fill-rule="nonzero" transform="translate(251 158.027)">
      <path fill="#D3D3D3" d="M53.1938017,74.3632231 C53.1938017,66.3909091 59.6797521,59.95 67.6070248,59.95 C75.5793388,59.95 82.0652893,66.4359504 82.0652893,74.3632231 C82.0652893,82.3355372 75.5793388,88.8214876 67.6070248,88.8214876 C59.6347107,88.8214876 53.1938017,82.3355372 53.1938017,74.3632231 Z M162.914463,86.1640496 C154.131405,84.542562 152.419835,77.2008264 127.73719,95.0822314 C103.099587,112.963636 83.5066116,135.21405 60.085124,134.268182 C36.6636364,133.322314 26.8896694,135.439256 26.8896694,135.439256 L26.8896694,165.977273 L197.91157,165.977273 L199.893388,107.198347 C199.893388,107.198347 171.697521,87.7855372 162.914463,86.1640496 Z"/>
      <path fill="#797979" d="M199.893388,169.580579 L26.8896694,169.580579 C24.9078512,169.580579 23.2863636,167.959091 23.2863636,165.977273 L23.2863636,135.439256 C23.2863636,133.457438 24.9078512,131.83595 26.8896694,131.83595 L47.2483471,131.83595 C64.3190083,131.83595 80.8942149,125.440083 98.0099174,112.288017 L100.892562,110.080992 C117.738017,97.1090909 138.682231,80.9392562 154.131405,80.9392562 C166.742975,80.9392562 181.741736,91.3438017 192.056198,100.081818 C193.587603,101.342975 193.767769,103.640083 192.506612,105.171488 C191.245455,106.702893 188.948347,106.883058 187.416942,105.621901 C174.084711,94.3615702 162.238843,88.1909091 154.131405,88.1909091 C141.159504,88.1909091 120.440496,104.180579 105.306612,115.846281 L102.423967,118.053306 C84.0020661,132.196281 65.9855372,139.087603 47.2933884,139.087603 L30.4929752,139.087603 L30.4929752,162.419008 L196.290083,162.419008 L196.290083,148.636364 C196.290083,146.654545 197.91157,145.033058 199.893388,145.033058 C201.875207,145.033058 203.496694,146.654545 203.496694,148.636364 L203.496694,165.932231 C203.496694,167.959091 201.920248,169.580579 199.893388,169.580579 Z M199.893388,138.727273 C197.91157,138.727273 196.290083,137.105785 196.290083,135.123967 L196.290083,37.2491736 L30.4929752,37.2491736 L30.4929752,125.214876 C30.4929752,127.196694 28.8714876,128.818182 26.8896694,128.818182 C24.9078512,128.818182 23.2863636,127.196694 23.2863636,125.214876 L23.2863636,33.6458678 C23.2863636,31.6640496 24.9078512,30.042562 26.8896694,30.042562 L199.893388,30.042562 C201.875207,30.042562 203.496694,31.6640496 203.496694,33.6458678 L203.496694,135.123967 C203.496694,137.150826 201.920248,138.727273 199.893388,138.727273 Z M67.6070248,92.4247934 C57.6528926,92.4247934 49.5904959,84.3173554 49.5904959,74.3632231 C49.5904959,64.4090909 57.6979339,56.3466942 67.6070248,56.3466942 C77.561157,56.3466942 85.668595,64.4541322 85.668595,74.3632231 C85.668595,84.3173554 77.561157,92.4247934 67.6070248,92.4247934 Z M67.6070248,63.5533058 C61.6165289,63.5533058 56.7971074,68.4177686 56.7971074,74.3632231 C56.7971074,80.353719 61.6615702,85.2181818 67.6070248,85.2181818 C73.5975207,85.2181818 78.4619835,80.353719 78.4619835,74.3632231 C78.4619835,68.4177686 73.5975207,63.5533058 67.6070248,63.5533058 Z"/>
      <g fill="#D3D3D3" transform="translate(4.504 186.02)">
        <polygon points=".27 .315 27.7 27.745 .27 27.745"/>
        <path d="M145.888843,19.8632231 L130.259504,19.8632231 L130.259504,4.2338843 L145.888843,4.2338843 L145.888843,19.8632231 Z M170.796694,4.2338843 L155.167355,4.2338843 L155.167355,19.8632231 L170.796694,19.8632231 L170.796694,4.2338843 Z"/>
        <polygon points="195.66 19.863 180.03 19.863 180.03 4.234 195.66 4.234"/>
      </g>
      <path fill="#797979" d="M217.909917,135.123967 C217.909917,137.105785 216.28843,138.727273 214.306612,138.727273 L194.938843,138.727273 C192.957025,138.727273 191.335537,137.105785 191.335537,135.123967 C191.335537,133.142149 192.957025,131.520661 194.938843,131.520661 L214.306612,131.520661 C216.333471,131.520661 217.909917,133.142149 217.909917,135.123967 Z M204.622727,145.033058 L171.382231,145.033058 C169.400413,145.033058 167.778926,146.654545 167.778926,148.636364 C167.778926,150.618182 169.400413,152.239669 171.382231,152.239669 L204.622727,152.239669 C206.604545,152.239669 208.226033,150.618182 208.226033,148.636364 C208.226033,146.654545 206.649587,145.033058 204.622727,145.033058 Z M62.3822314,9.09834711 C62.3822314,7.11652893 60.7607438,5.49504132 58.7789256,5.49504132 L3.78347107,5.49504132 C1.80165289,5.49504132 0.180165289,7.11652893 0.180165289,9.09834711 C0.180165289,11.0801653 1.80165289,12.7016529 3.78347107,12.7016529 L58.7789256,12.7016529 C60.7607438,12.7016529 62.3822314,11.0801653 62.3822314,9.09834711 Z M74.7235537,189.71405 L72.9669421,189.71405 L72.9669421,187.957438 C72.9669421,185.97562 71.3454545,184.354132 69.3636364,184.354132 C67.3818182,184.354132 65.7603306,185.97562 65.7603306,187.957438 L65.7603306,189.71405 L64.003719,189.71405 C62.0219008,189.71405 60.4004132,191.335537 60.4004132,193.317355 C60.4004132,195.299174 62.0219008,196.920661 64.003719,196.920661 L65.7603306,196.920661 L65.7603306,198.677273 C65.7603306,200.659091 67.3818182,202.280579 69.3636364,202.280579 C71.3454545,202.280579 72.9669421,200.659091 72.9669421,198.677273 L72.9669421,196.920661 L74.7235537,196.920661 C76.7053719,196.920661 78.3268595,195.299174 78.3268595,193.317355 C78.3268595,191.335537 76.7053719,189.71405 74.7235537,189.71405 Z M194.533471,12.7016529 L196.290083,12.7016529 L196.290083,14.4582645 C196.290083,16.4400826 197.91157,18.0615702 199.893388,18.0615702 C201.875207,18.0615702 203.496694,16.4400826 203.496694,14.4582645 L203.496694,12.7016529 L205.253306,12.7016529 C207.235124,12.7016529 208.856612,11.0801653 208.856612,9.09834711 C208.856612,7.11652893 207.235124,5.49504132 205.253306,5.49504132 L203.496694,5.49504132 L203.496694,3.73842975 C203.496694,1.75661157 201.875207,0.135123967 199.893388,0.135123967 C197.91157,0.135123967 196.290083,1.75661157 196.290083,3.73842975 L196.290083,5.49504132 L194.533471,5.49504132 C192.551653,5.49504132 190.930165,7.11652893 190.930165,9.09834711 C190.930165,11.0801653 192.551653,12.7016529 194.533471,12.7016529 Z"/>
    </g>
  </g>
</svg>
