<svg xmlns="http://www.w3.org/2000/svg" width="335" height="272" viewBox="0 0 335 272">
  <path d="M52.3076923,209.230769 L10.4615385,209.230769 C4.68379031,209.230769 0,213.91456 0,219.692308 L0,261.538462 C0,267.31621 4.68379031,272 10.4615385,272 L52.3076923,272 C58.0854405,272 62.7692308,267.31621 62.7692308,261.538462 L62.7692308,219.692308 C62.7692308,213.91456 58.0854405,209.230769 52.3076923,209.230769 Z M52.3076923,0 L10.4615385,0 C4.68379031,0 0,4.68379031 0,10.4615385 L0,52.3076923 C0,58.0854405 4.68379031,62.7692308 10.4615385,62.7692308 L52.3076923,62.7692308 C58.0854405,62.7692308 62.7692308,58.0854405 62.7692308,52.3076923 L62.7692308,10.4615385 C62.7692308,4.68379031 58.0854405,0 52.3076923,0 Z M52.3076923,104.615385 L10.4615385,104.615385 C4.68379031,104.615385 0,109.299175 0,115.076923 L0,156.923077 C0,162.700825 4.68379031,167.384615 10.4615385,167.384615 L52.3076923,167.384615 C58.0854405,167.384615 62.7692308,162.700825 62.7692308,156.923077 L62.7692308,115.076923 C62.7692308,109.299175 58.0854405,104.615385 52.3076923,104.615385 Z M324.307692,219.692308 L115.076923,219.692308 C109.299175,219.692308 104.615385,224.376098 104.615385,230.153846 L104.615385,251.076923 C104.615385,256.854671 109.299175,261.538462 115.076923,261.538462 L324.307692,261.538462 C330.08544,261.538462 334.769231,256.854671 334.769231,251.076923 L334.769231,230.153846 C334.769231,224.376098 330.08544,219.692308 324.307692,219.692308 Z M324.307692,10.4615385 L115.076923,10.4615385 C109.299175,10.4615385 104.615385,15.1453288 104.615385,20.9230769 L104.615385,41.8461538 C104.615385,47.623902 109.299175,52.3076923 115.076923,52.3076923 L324.307692,52.3076923 C330.08544,52.3076923 334.769231,47.623902 334.769231,41.8461538 L334.769231,20.9230769 C334.769231,15.1453288 330.08544,10.4615385 324.307692,10.4615385 Z M324.307692,115.076923 L115.076923,115.076923 C109.299175,115.076923 104.615385,119.760713 104.615385,125.538462 L104.615385,146.461538 C104.615385,152.239287 109.299175,156.923077 115.076923,156.923077 L324.307692,156.923077 C330.08544,156.923077 334.769231,152.239287 334.769231,146.461538 L334.769231,125.538462 C334.769231,119.760713 330.08544,115.076923 324.307692,115.076923 Z"/>
</svg>
