<svg xmlns="http://www.w3.org/2000/svg" width="238" height="272" viewBox="0 0 238 272">
  <path d="M142.071656,259.549094 C139.339438,269.648156 129.018313,272 119,272 C108.982219,272 98.6605625,269.648156 95.928875,259.549094 C91.8674688,244.446188 85,206.602063 85,188.992188 C85,170.315562 101.544187,165.75 119,165.75 C136.455813,165.75 153,170.315562 153,188.992188 C153,206.496344 146.162281,244.337281 142.071656,259.549094 Z M83.3355938,153.294312 C73.4049375,143.568188 67.4204062,129.827406 68.0440938,114.726094 C69.1352813,88.3102188 90.5664375,66.9369687 116.984969,65.9143125 C146.020438,64.7901875 170,88.0849688 170,116.875 C170,131.126844 164.12225,144.030375 154.664938,153.29325 C153.243844,154.685125 153.389406,157.004563 154.998562,158.173844 C159.945562,161.76775 163.742937,166.324813 166.279125,171.647938 C167.204031,173.589125 169.730656,174.123563 171.298906,172.652531 C186.612719,158.285938 196.030187,137.705313 195.476625,114.977375 C194.491156,74.4929375 161.691781,41.554375 121.211594,40.4063438 C78.0241563,39.1812812 42.5,73.9579688 42.5,116.875 C42.5,138.848031 51.813875,158.684375 66.6984375,172.650406 C68.2672187,174.1225 70.7949062,173.590719 71.7203437,171.647938 C74.2565312,166.324281 78.0544375,161.76775 83.0014375,158.173844 C84.6105937,157.005094 84.7566875,154.685656 83.3355938,153.294313 L83.3355938,153.294312 Z M119,0 C53.233375,0 0,53.2232812 0,119 C0,166.80825 27.9448125,206.999969 66.7988438,225.998 C69.10075,227.123188 71.7219375,225.17775 71.3330625,222.645813 C70.067625,214.405063 69.026375,206.20575 68.461125,199.090719 C68.3835625,198.115344 67.8507187,197.238781 67.0384375,196.693719 C41.8571875,179.796781 25.3013125,150.997719 25.5015937,118.415625 C25.8160937,67.2897187 67.6244062,25.633875 118.751375,25.5005313 C170.421281,25.3655937 212.5,67.3609062 212.5,119 C212.5,151.901375 195.416062,180.885312 169.654687,197.554344 C169.123969,205.0115 168.024281,213.804219 166.666937,222.645281 C166.278062,225.17775 168.899781,227.123187 171.201156,225.997469 C209.964344,207.042469 238,166.911844 238,119 C238,53.2339062 184.776719,0 119,0 Z M119,85 C100.222437,85 85,100.222437 85,119 C85,137.777562 100.222437,153 119,153 C137.777562,153 153,137.777562 153,119 C153,100.222437 137.777562,85 119,85 Z"/>
</svg>
