<svg xmlns="http://www.w3.org/2000/svg" width="408" height="272" viewBox="0 0 408 272">
  <path d="M385.2625,22.6666667 C380.870833,22.6666667 376.408333,23.9416667 372.370833,26.7041667 L294.666667,75.1541667 L294.666667,33.8583333 C294.666667,15.1583333 278.233333,0 257.975,0 L36.6916667,0 C16.4333333,0 0,15.1583333 0,33.8583333 L0,238.141667 C0,256.841667 16.4333333,272 36.6916667,272 L257.975,272 C278.233333,272 294.666667,256.841667 294.666667,238.141667 L294.666667,196.845833 L372.370833,245.225 C376.408333,248.058333 380.941667,249.2625 385.2625,249.2625 C397.020833,249.2625 408,240.054167 408,226.95 L408,44.9791667 C408,31.875 397.020833,22.6666667 385.2625,22.6666667 Z M260.666667,96.3333333 L260.666667,237.220833 C260.241667,237.504167 259.391667,238 257.975,238 L36.6916667,238 C35.275,238 34.425,237.575 34,237.220833 L34,34.7791667 C34.425,34.4958333 35.275,34 36.6916667,34 L257.975,34 C259.391667,34 260.241667,34.425 260.666667,34.7791667 L260.666667,96.3333333 Z M374,206.266667 L294.666667,156.825 L294.666667,115.245833 L374,65.8041667 L374,206.266667 Z"/>
</svg>
