<?xml version="1.0" encoding="utf-8"?>
<svg version="1.1" xmlns:xlink="http://www.w3.org/1999/xlink" width="8px" height="11px" xmlns="http://www.w3.org/2000/svg">
  <g transform="matrix(1 0 0 1 -232 -471 )">
    <path d="M 1.29529787087806 10.4988888888889  C 1.29529787087806 10.4988888888889  6.95876806318574 10.4988888888889  6.95876806318574 10.4988888888889  C 7.4796531593396 10.4988888888889  7.90241758241651 10.0790603298611  7.90241758241651 9.56179249131941  C 7.90241758241651 9.56179249131941  7.90241758241651 3.0780773871528  7.90241758241651 3.0780773871528  C 7.90241758241651 2.83028090277776  7.80213392857037 2.59009991319443  7.62516277472423 2.41435772569444  C 7.62516277472423 2.41435772569444  5.97579162087809 0.776440538194448  5.97579162087809 0.776440538194448  C 5.79882046703187 0.600698350694425  5.55892623626264 0.501111111111107  5.3093969093396 0.501111111111107  C 5.3093969093396 0.501111111111107  1.29529787087806 0.501111111111107  1.29529787087806 0.501111111111107  C 0.774412774724204 0.503063802083328  0.351648351647292 0.922892361111094  0.351648351647292 1.44016019965277  C 0.351648351647292 1.44016019965277  0.351648351647292 9.56179249131941  0.351648351647292 9.56179249131941  C 0.351648351647292 10.0790603298611  0.774412774724204 10.4988888888889  1.29529787087806 10.4988888888889  Z M 5.22877671703191 3.62541666666667  C 5.22877671703191 3.62541666666667  7.27338344780114 3.62541666666667  7.27338344780114 3.62541666666667  C 7.27338344780114 3.62541666666667  7.27338344780114 9.56179249131941  7.27338344780114 9.56179249131941  C 7.27338344780114 9.73362929687496  7.1318065247242 9.87422304687498  6.95876806318574 9.87422304687498  C 6.95876806318574 9.87422304687498  1.29529787087806 9.87422304687498  1.29529787087806 9.87422304687498  C 1.12225940933961 9.87422304687498  0.980682486262664 9.73362929687496  0.980682486262664 9.56179249131941  C 0.980682486262664 9.56179249131941  0.980682486262664 1.44016019965277  0.980682486262664 1.44016019965277  C 0.980682486262664 1.26832339409722  1.12225940933961 1.12597222222221  1.29529787087806 1.12597222222221  C 1.29529787087806 1.12597222222221  4.75685364010881 1.12597222222221  4.75685364010881 1.12597222222221  C 4.75685364010881 1.12597222222221  4.75685364010881 3.15813771701384  4.75685364010881 3.15813771701384  C 4.75685364010881 3.41784561631945  4.96725267857038 3.62541666666667  5.22877671703191 3.62541666666667  Z M 7.26355171703192 3.00192243923613  C 7.26355171703192 3.00192243923613  5.3860844093396 3.00192243923613  5.3860844093396 3.00192243923613  L 5.3860844093396 1.13749309895834  C 5.44114210164732 1.15116193576389  5.49030075549343 1.17849960937501  5.53159402472423 1.21950611979167  C 5.53159402472423 1.21950611979167  7.18096517857038 2.85742330729167  7.18096517857038 2.85742330729167  C 7.22225844780118 2.89842981770837  7.24978729395501 2.94724709201388  7.26355171703192 3.00192243923613  Z M 6.28450796703188 4.87513888888887  C 6.48310892857038 4.87513888888887  6.64415267857035 5.0149515625  6.64415267857035 5.18756944444443  C 6.64415267857035 5.18756944444443  6.64415267857035 7.06215277777776  6.64415267857035 7.06215277777776  C 6.64415267857035 7.2347706597222  6.48310892857038 7.37458333333333  6.28450796703188 7.37458333333333  C 6.28450796703188 7.37458333333333  1.96975460164727 7.37458333333333  1.96975460164727 7.37458333333333  C 1.77115364010877 7.37458333333333  1.61010989010881 7.2347706597222  1.61010989010881 7.06215277777776  C 1.61010989010881 7.06215277777776  1.61010989010881 5.18756944444443  1.61010989010881 5.18756944444443  C 1.61010989010881 5.0149515625  1.77115364010877 4.87513888888887  1.96975460164727 4.87513888888887  C 1.96975460164727 4.87513888888887  6.28450796703188 4.87513888888887  6.28450796703188 4.87513888888887  Z M 6.643956043955 9.09295138888888  C 6.643956043955 9.1792603298611  6.5735608516473 9.24916666666666  6.4866483516473 9.24916666666666  C 6.4866483516473 9.24916666666666  4.91357142857039 9.24916666666666  4.91357142857039 9.24916666666666  C 4.8266589285704 9.24916666666666  4.75626373626269 9.1792603298611  4.75626373626269 9.09295138888888  C 4.75626373626269 9.09295138888888  4.75626373626269 8.78052083333331  4.75626373626269 8.78052083333331  C 4.75626373626269 8.69421189236109  4.8266589285704 8.62430555555553  4.91357142857039 8.62430555555553  C 4.91357142857039 8.62430555555553  6.4866483516473 8.62430555555553  6.4866483516473 8.62430555555553  C 6.5735608516473 8.62430555555553  6.643956043955 8.69421189236109  6.643956043955 8.78052083333331  C 6.643956043955 8.78052083333331  6.643956043955 9.09295138888888  6.643956043955 9.09295138888888  Z M 1.7674175824165 2.37569444444444  C 1.68050508241651 2.37569444444444  1.61010989010881 2.30578810763887  1.61010989010881 2.21947916666665  C 1.61010989010881 2.21947916666665  1.61010989010881 1.90704861111112  1.61010989010881 1.90704861111112  C 1.61010989010881 1.8207396701389  1.68050508241651 1.75083333333334  1.7674175824165 1.75083333333334  C 1.7674175824165 1.75083333333334  3.9697252747242 1.75083333333334  3.9697252747242 1.75083333333334  C 4.0566377747242 1.75083333333334  4.1270329670319 1.8207396701389  4.1270329670319 1.90704861111112  C 4.1270329670319 1.90704861111112  4.1270329670319 2.21947916666665  4.1270329670319 2.21947916666665  C 4.1270329670319 2.30578810763887  4.0566377747242 2.37569444444444  3.9697252747242 2.37569444444444  C 3.9697252747242 2.37569444444444  1.7674175824165 2.37569444444444  1.7674175824165 2.37569444444444  Z M 3.9697252747242 3.62541666666667  C 3.9697252747242 3.62541666666667  1.7674175824165 3.62541666666667  1.7674175824165 3.62541666666667  C 1.68050508241651 3.62541666666667  1.61010989010881 3.5555103298611  1.61010989010881 3.46920138888889  C 1.61010989010881 3.46920138888889  1.61010989010881 3.15677083333332  1.61010989010881 3.15677083333332  C 1.61010989010881 3.0704618923611  1.68050508241651 3.00055555555554  1.7674175824165 3.00055555555554  C 1.7674175824165 3.00055555555554  3.9697252747242 3.00055555555554  3.9697252747242 3.00055555555554  C 4.0566377747242 3.00055555555554  4.1270329670319 3.0704618923611  4.1270329670319 3.15677083333332  C 4.1270329670319 3.15677083333332  4.1270329670319 3.46920138888889  4.1270329670319 3.46920138888889  C 4.1270329670319 3.5555103298611  4.0566377747242 3.62541666666667  3.9697252747242 3.62541666666667  Z M 2.2393406593396 6.7497222222222  L 6.01472527472421 6.7497222222222  L 6.01472527472421 5.5  L 2.2393406593396 5.5  L 2.2393406593396 6.7497222222222  Z " fill-rule="nonzero" fill="#015295" stroke="none" transform="matrix(1 0 0 1 232 471 )" />
  </g>
</svg>