<?xml version="1.0" encoding="utf-8"?>
<svg version="1.1" xmlns:xlink="http://www.w3.org/1999/xlink" width="17px" height="11px" xmlns="http://www.w3.org/2000/svg">
  <g transform="matrix(1 0 0 1 -175 -410 )">
    <path d="M 15.0947963984841 2.97852457098289  C 15.0947963984841 2.97852457098289  16.5526485045683 2.97326053042126  16.5526485045683 2.97326053042126  C 16.6671940271892 2.97326053042126  16.7609130911518 2.87850780031207  16.7609130911518 2.76269890795635  C 16.7609130911518 2.76269890795635  16.7609130911518 2.34157566302653  16.7609130911518 2.34157566302653  C 16.7583097838195 2.22313475039003  16.6645907198569 2.13101404056162  16.550045197236 2.13101404056162  L 13.5952913750831 2.13627808112326  C 13.5952913750831 2.13627808112326  12.2623980209489 0.822899960998477  12.2623980209489 0.822899960998477  C 12.0254970537103 0.583386115444657  11.7131001738351 0.451785101404109  11.3798768353016 0.451785101404109  C 11.3798768353016 0.451785101404109  8.75053642968531 0.451785101404109  8.75053642968531 0.451785101404109  C 8.47979246712681 0.451785101404109  8.22727165589436 0.554433892355746  8.01380045464629 0.714987129485205  C 7.79512263873362 0.543905811232477  7.52698198350746 0.443889040561658  7.25103140628436 0.443889040561658  C 7.25103140628436 0.443889040561658  5.44173281034047 0.443889040561658  5.44173281034047 0.443889040561658  C 5.11111277913929 0.443889040561658  4.79350928459948 0.578122074883023  4.55921162469309 0.815003900156025  C 4.55921162469309 0.815003900156025  3.25755795854642 2.13101404056162  3.25755795854642 2.13101404056162  C 3.25755795854642 2.13101404056162  0.305407443725844 2.13101404056162  0.305407443725844 2.13101404056162  C 0.190861921104911 2.13101404056162  0.0971428571423712 2.22576677067089  0.0971428571423712 2.34157566302653  C 0.0971428571423712 2.34157566302653  0.0971428571423712 2.76269890795635  0.0971428571423712 2.76269890795635  C 0.0971428571423712 2.87850780031207  0.190861921104911 2.97326053042126  0.305407443725844 2.97326053042126  C 0.305407443725844 2.97326053042126  1.76325954981008 2.97326053042126  1.76325954981008 2.97326053042126  L 1.76325954981008 8.02410744929804  C 1.76325954981008 8.02410744929804  0.305407443725844 8.02410744929804  0.305407443725844 8.02410744929804  C 0.190861921104911 8.02410744929804  0.0971428571423712 8.11886017940723  0.0971428571423712 8.23466907176287  C 0.0971428571423712 8.23466907176287  0.0971428571423712 8.65579231669269  0.0971428571423712 8.65579231669269  C 0.0971428571423712 8.77160120904841  0.190861921104911 8.8663539391576  0.305407443725844 8.8663539391576  C 0.305407443725844 8.8663539391576  1.76325954981008 8.8663539391576  1.76325954981008 8.8663539391576  C 2.22144164029373 8.8663539391576  2.59111128147937 8.49260705928241  2.59371458881163 8.03200351014046  C 2.59371458881163 8.03200351014046  3.45801262313304 8.03200351014046  3.45801262313304 8.03200351014046  C 3.45801262313304 8.03200351014046  5.57970809895206 10.0849793291732  5.57970809895206 10.0849793291732  C 6.35549368397545 10.7192962168487  7.44888276353864 10.700872074883  8.20904850456831 10.0797152886116  C 8.20904850456831 10.0797152886116  8.39648663249339 10.2429005460219  8.39648663249339 10.2429005460219  C 8.64640413639357 10.4481981279252  8.95099109427184 10.5561109594384  9.26859458881165 10.5561109594384  C 9.6851237619786 10.5561109594384  10.0782231691549 10.3718695397816  10.3463638243811 10.0402349843994  C 10.3463638243811 10.0402349843994  10.9164881301533 9.33222152886119  10.9164881301533 9.33222152886119  C 11.3434305326494 9.56647133385341  12.0333069757072 9.56910335413419  12.4784725295293 9.01637909516383  C 12.4784725295293 9.01637909516383  12.7257867260972 8.70843272230896  12.7257867260972 8.70843272230896  C 12.8871917806994 8.50839918096732  12.9757042299973 8.27151735569424  12.999133995988 8.03200351014046  C 12.999133995988 8.03200351014046  14.2643413594825 8.03200351014046  14.2643413594825 8.03200351014046  C 14.2669446668148 8.49260705928241  14.6392176153327 8.8663539391576  15.0947963984841 8.8663539391576  C 15.0947963984841 8.8663539391576  16.5526485045683 8.8663539391576  16.5526485045683 8.8663539391576  C 16.6671940271892 8.8663539391576  16.7609130911518 8.77160120904841  16.7609130911518 8.65579231669269  C 16.7609130911518 8.65579231669269  16.7609130911518 8.23466907176287  16.7609130911518 8.23466907176287  C 16.7609130911518 8.11886017940723  16.6671940271892 8.02410744929804  16.5526485045683 8.02410744929804  C 16.5526485045683 8.02410744929804  15.0947963984841 8.02410744929804  15.0947963984841 8.02410744929804  L 15.0947963984841 2.97852457098289  Z M 0.0971428571423712 6.75810569422782  C 0.0971428571423712 6.99235549922004  0.284580985067528 7.17922893915763  0.513672030309317 7.17922893915763  C 0.742763075551106 7.17922893915763  0.930201203476263 6.98972347893918  0.930201203476263 6.75810569422782  C 0.930201203476263 6.52648790951645  0.742763075551106 6.336982449298  0.513672030309317 6.336982449298  C 0.284580985067528 6.336982449298  0.0971428571423712 6.52648790951645  0.0971428571423712 6.75810569422782  Z M 5.63177424559797 5.3394467628705  C 6.00404719411587 5.75004192667705  7.15731234232183 6.37383073322936  8.15437905059014 5.44999161466459  C 8.15437905059014 5.44999161466459  8.74793312235305 4.899899375975  8.74793312235305 4.899899375975  C 8.74793312235305 4.899899375975  12.0176871317134 7.58192804212169  12.0176871317134 7.58192804212169  C 12.1947120303093 7.72932117784714  12.2207451036322 7.99515522620901  12.0775632003561 8.17413260530419  C 12.0775632003561 8.17413260530419  11.8302490037883 8.48207897815914  11.8302490037883 8.48207897815914  C 11.6896704078444 8.65579231669269  11.4293396746151 8.69527262090483  11.2445048540223 8.54261544461774  C 11.2445048540223 8.54261544461774  10.7811161488741 8.16360452418093  10.7811161488741 8.16360452418093  C 10.7811161488741 8.16360452418093  9.70074360597232 9.50593486739466  9.70074360597232 9.50593486739466  C 9.50549555605038 9.75071275351015  9.1540490661908 9.77440093603747  8.93537125027813 9.59542355694229  C 8.93537125027813 9.59542355694229  8.13875920659635 8.90846626365052  8.13875920659635 8.90846626365052  C 8.13875920659635 8.90846626365052  7.86801524403785 9.24536485959442  7.86801524403785 9.24536485959442  C 7.43326291954492 9.78492901716066  6.64446079786 9.86915366614665  6.13421256073052 9.45329446177847  C 6.13421256073052 9.45329446177847  3.7938392689989 7.18712499999997  3.7938392689989 7.18712499999997  L 2.59631789614397 7.18712499999997  L 2.59631789614397 2.9706285101404  L 3.60119452640914 2.9706285101404  C 3.60119452640914 2.9706285101404  5.14495577445914 1.40984048361935  5.14495577445914 1.40984048361935  C 5.22305499442788 1.33087987519499  5.32979059505195 1.28613553042121  5.43912950300821 1.28613553042121  C 5.43912950300821 1.28613553042121  7.2484280989521 1.28613553042121  7.2484280989521 1.28613553042121  C 7.27185786494268 1.34403997659907  7.25623802094896 1.30455967238689  7.27706447960728 1.36246411856476  C 7.27706447960728 1.36246411856476  5.74111315355422 2.78901911076444  5.74111315355422 2.78901911076444  C 5.00698048584755 3.4707123634945  4.97053418319544 4.61037714508581  5.63177424559797 5.3394467628705  Z M 11.6714472565184 1.41773654446184  C 11.6714472565184 1.41773654446184  13.2516548072204 2.97326053042126  13.2516548072204 2.97326053042126  L 14.2591347448179 2.97326053042126  L 14.2591347448179 7.18712500000004  C 14.2591347448179 7.18712500000004  12.7700429507462 7.18712500000004  12.7700429507462 7.18712500000004  C 12.7049602674388 7.09500429017164  12.6320676621346 7.00551560062409  12.5409519055044 6.92918701248058  C 12.5409519055044 6.92918701248058  9.36752026743879 4.3234869344774  9.36752026743879 4.3234869344774  C 9.36752026743879 4.3234869344774  10.1068595498101 3.63652964118571  10.1068595498101 3.63652964118571  C 10.2760745264092 3.47860842433699  10.2890910630706 3.21277437597512  10.1328926231331 3.04169305772235  C 9.97669418319541 2.87061173946966  9.71376014263385 2.86008365834639  9.54454516603475 3.01537285491425  C 9.54454516603475 3.01537285491425  7.58946135948249 4.82620280811236  7.58946135948249 4.82620280811236  C 7.21458510363225 5.17099746489867  6.58458472921731 5.14204524180972  6.24355146868685 4.76829836193453  C 5.88950167149501 4.37875936037445  5.91293143748559 3.76813065522626  6.30082422999728 3.40754387675512  C 6.30082422999728 3.40754387675512  8.46417262313301 1.40194442277697  8.46417262313301 1.40194442277697  C 8.54227184310184 1.33087987519507  8.64119752172897 1.29139957098289  8.74532981502071 1.29139957098289  C 8.74532981502071 1.29139957098289  11.374670220637 1.29139957098289  11.374670220637 1.29139957098289  C 11.4866124359256 1.29139957098289  11.5907447292173 1.33614391575666  11.6714472565184 1.41773654446184  Z M 16.3417806106526 7.18186095943849  C 16.5708716558944 7.18186095943849  16.7583097838195 6.99235549922004  16.7583097838195 6.76073771450867  C 16.7583097838195 6.52648790951645  16.5708716558944 6.33961446957886  16.3417806106526 6.33961446957886  C 16.1126895654108 6.33961446957886  15.9252514374856 6.5291199297973  15.9252514374856 6.76073771450867  C 15.9252514374856 6.99235549922004  16.1126895654108 7.18186095943849  16.3417806106526 7.18186095943849  Z " fill-rule="nonzero" fill="#015295" stroke="none" transform="matrix(1 0 0 1 175 410 )" />
  </g>
</svg>