<?xml version="1.0" encoding="utf-8"?>
<svg version="1.1" xmlns:xlink="http://www.w3.org/1999/xlink" width="7px" height="11px" xmlns="http://www.w3.org/2000/svg">
  <g transform="matrix(1 0 0 1 -203 -441 )">
    <path d="M 3.48068181818094 0.50111111111135  C 2.40258338068092 0.50111111111135  1.52863636363549 1.34037769097247  1.52863636363549 2.37569444444468  C 1.52863636363549 2.37569444444468  1.52863636363549 5.50000000000021  1.52863636363549 5.50000000000021  C 1.52863636363549 6.53531675347245  2.40258338068092 7.37458333333354  3.48068181818094 7.37458333333354  C 4.55878025568096 7.37458333333354  5.43272727272639 6.53531675347245  5.43272727272639 5.50000000000021  C 5.43272727272639 5.50000000000021  5.43272727272639 2.37569444444468  5.43272727272639 2.37569444444468  C 5.43272727272639 1.34037769097247  4.55878025568096 0.50111111111135  3.48068181818094 0.50111111111135  Z M 4.78204545454462 5.50000000000028  C 4.78204545454462 6.1891046440975  4.19826186079465 6.74972222222248  3.48068181818094 6.74972222222248  C 2.7631017755673 6.74972222222248  2.17931818181733 6.1891046440975  2.17931818181733 5.50000000000028  C 2.17931818181733 5.50000000000028  2.17931818181733 2.37569444444472  2.17931818181733 2.37569444444472  C 2.17931818181733 1.68658980034749  2.7631017755673 1.12597222222248  3.48068181818094 1.12597222222248  C 4.19826186079465 1.12597222222248  4.78204545454462 1.68658980034749  4.78204545454462 2.37569444444472  C 4.78204545454462 2.37569444444472  3.6433522727264 2.37569444444472  3.6433522727264 2.37569444444472  C 3.55347684659004 2.37569444444472  3.48068181818094 2.44560078125025  3.48068181818094 2.53190972222246  C 3.48068181818094 2.53190972222246  3.48068181818094 2.84434027777803  3.48068181818094 2.84434027777803  C 3.48068181818094 2.93064921875025  3.55347684659004 3.00055555555581  3.6433522727264 3.00055555555581  C 3.6433522727264 3.00055555555581  4.78204545454462 3.00055555555581  4.78204545454462 3.00055555555581  L 4.78204545454462 3.62541666666695  C 4.78204545454462 3.62541666666695  3.6433522727264 3.62541666666695  3.6433522727264 3.62541666666695  C 3.55347684659004 3.62541666666695  3.48068181818094 3.69532300347251  3.48068181818094 3.78163194444473  C 3.48068181818094 3.78163194444473  3.48068181818094 4.09406250000023  3.48068181818094 4.09406250000023  C 3.48068181818094 4.18037144097245  3.55347684659004 4.25027777777801  3.6433522727264 4.25027777777801  C 3.6433522727264 4.25027777777801  4.78204545454462 4.25027777777801  4.78204545454462 4.25027777777801  L 4.78204545454462 4.87513888888915  C 4.78204545454462 4.87513888888915  3.6433522727264 4.87513888888915  3.6433522727264 4.87513888888915  C 3.55347684659004 4.87513888888915  3.48068181818094 4.94504522569471  3.48068181818094 5.03135416666693  C 3.48068181818094 5.03135416666693  3.48068181818094 5.34378472222249  3.48068181818094 5.34378472222249  C 3.48068181818094 5.43009366319471  3.55347684659004 5.50000000000028  3.6433522727264 5.50000000000028  C 3.6433522727264 5.50000000000028  4.78204545454462 5.50000000000028  4.78204545454462 5.50000000000028  Z M 6.73409090909008 5.50000000000028  C 6.73409090909008 5.50000000000028  6.73409090909008 4.40649305555586  6.73409090909008 4.40649305555586  C 6.73409090909008 4.32018411458365  6.66129588068098 4.25027777777808  6.57142045454462 4.25027777777808  C 6.57142045454462 4.25027777777808  6.2460795454537 4.25027777777808  6.2460795454537 4.25027777777808  C 6.15620411931734 4.25027777777808  6.08340909090823 4.32018411458365  6.08340909090823 4.40649305555586  C 6.08340909090823 4.40649305555586  6.08340909090823 5.50000000000028  6.08340909090823 5.50000000000028  C 6.08340909090823 6.93444678819475  4.81864630681732 8.09083038194473  3.30316768465826 7.99378164062534  C 1.92107883522643 7.90532473958364  0.877954545453721 6.74210672743085  0.877954545453721 5.4119336371531  C 0.877954545453721 5.4119336371531  0.877954545453721 4.40649305555586  0.877954545453721 4.40649305555586  C 0.877954545453721 4.32018411458365  0.80515951704462 4.25027777777808  0.715284090908261 4.25027777777808  C 0.715284090908261 4.25027777777808  0.38994318181734 4.25027777777808  0.38994318181734 4.25027777777808  C 0.300067755680981 4.25027777777808  0.22727272727188 4.32018411458365  0.22727272727188 4.40649305555586  C 0.22727272727188 4.40649305555586  0.22727272727188 5.38947769097252  0.22727272727188 5.38947769097252  C 0.22727272727188 7.01782669270867  1.48064857954462 8.4380188368059  3.15534090909009 8.60028745659753  C 3.15534090909009 8.60028745659753  3.15534090909009 9.87402777777807  3.15534090909009 9.87402777777807  C 3.15534090909009 9.87402777777807  1.69130681818095 9.87402777777807  1.69130681818095 9.87402777777807  C 1.60143139204459 9.87402777777807  1.52863636363549 9.94393411458364  1.52863636363549 10.0302430555559  C 1.52863636363549 10.0302430555559  1.52863636363549 10.3426736111114  1.52863636363549 10.3426736111114  C 1.52863636363549 10.4289825520836  1.60143139204459 10.4988888888892  1.69130681818095 10.4988888888892  C 1.69130681818095 10.4988888888892  5.27005681818101 10.4988888888892  5.27005681818101 10.4988888888892  C 5.35993224431736 10.4988888888892  5.43272727272647 10.4289825520836  5.43272727272647 10.3426736111114  C 5.43272727272647 10.3426736111114  5.43272727272647 10.0302430555559  5.43272727272647 10.0302430555559  C 5.43272727272647 9.94393411458364  5.35993224431736 9.87402777777807  5.27005681818101 9.87402777777807  C 5.27005681818101 9.87402777777807  3.80602272727186 9.87402777777807  3.80602272727186 9.87402777777807  C 3.80602272727186 9.87402777777807  3.80602272727186 8.60458337673641  3.80602272727186 8.60458337673641  C 5.44716427556733 8.44661067708367  6.73409090909008 7.11682812500029  6.73409090909008 5.50000000000028  Z " fill-rule="nonzero" fill="#015295" stroke="none" transform="matrix(1 0 0 1 203 441 )" />
  </g>
</svg>