<?xml version="1.0" encoding="utf-8"?>
<svg version="1.1" xmlns:xlink="http://www.w3.org/1999/xlink" width="13px" height="11px" xmlns="http://www.w3.org/2000/svg">
  <g transform="matrix(1 0 0 1 -206 -501 )">
    <path d="M 10.1840487114435 10.4988888888889  C 10.2406928875798 10.4988888888889  10.2784556716708 10.4793619791667  10.4009959060458 10.4342548177083  C 10.5235361404208 10.38914765625  10.5865999898526 10.2735483506944  10.5193822341708 10.0753502170138  C 10.830169947239 9.88613446180549  11.6362165736594 9.60494696180552  11.9449273336026 9.55944926215275  C 12.0138444145685 9.76252912326383  12.136195835023 9.80646467013882  12.2542045353071 9.76370073784716  C 12.2542045353071 9.76370073784716  12.3967590452503 9.71214969618054  12.3967590452503 9.71214969618054  C 12.5147478135042 9.6693796418325  12.5769380195747 9.53585327129231  12.5357260907049 9.41377851562496  C 12.5357260907049 9.41377851562496  9.20637023132985 0.657326388888821  9.20637023132985 0.657326388888821  C 9.17428028134525 0.563457811018291  9.08833716115846 0.500810165895489  8.99206643161395 0.501111111111037  C 8.93542225547757 0.501111111111037  8.89765947138669 0.520638020833278  8.77511923701163 0.565745182291607  C 8.65257900263663 0.610852343749937  8.58970396712529 0.72664691840272  8.65673290888663 0.924649782986058  C 8.34594519581851 1.1138655381944  7.53989856939804 1.39505303819441  7.23118780945482 1.44055073784718  C 7.20607555803442 1.36673901909717  7.19342502536394 1.31128259548604  7.11034690036395 1.26031736111105  C 7.11034690036395 1.26031736111105  7.11034690036395 1.12597222222217  7.11034690036395 1.12597222222217  C 7.11034691665395 0.780947202738389  6.83995038625556 0.501218931429634  6.50633116882987 0.501111111111037  C 6.50633116882987 0.501111111111037  4.69371753246617 0.501111111111037  4.69371753246617 0.501111111111037  C 4.58042918019347 0.501111111111037  4.48186831371621 0.541531814236038  4.39161525973895 0.596792968749949  C 4.30136220576162 0.541531814236038  4.20280133928437 0.501111111111037  4.08951298701167 0.501111111111037  C 4.08951298701167 0.501111111111037  2.27689935064803 0.501111111111037  2.27689935064803 0.501111111111037  C 1.943206394415 0.501111111111037  1.67269480519347 0.780870959793169  1.67269480519347 1.12597222222217  C 1.67269480519347 1.12597222222217  1.67269480519347 2.64047934027772  1.67269480519347 2.64047934027772  C 1.86661922599497 2.5512986482634  2.06915779848663 2.48368138386311  2.27689935064803 2.43876636284716  C 2.27689935064803 2.43876636284716  2.27689935064803 1.12597222222217  2.27689935064803 1.12597222222217  L 4.08951298701167 1.12597222222217  C 4.08951298701167 1.12597222222217  4.08951298701167 2.64047934027772  4.08951298701167 2.64047934027772  C 4.30445014447117 2.74088065556349  4.50724087938704 2.86704259982174  4.69371753246617 3.01637235243049  L 6.50633116882987 3.00055555555554  L 6.50633116882987 7.99944444444439  L 4.69371753246617 7.99944444444439  C 4.50724087938704 8.14877419705308  4.30445014447117 8.25911934443644  4.08951298701167 8.35952065972221  C 4.08951298701167 8.35952065972221  4.08951298701167 9.87402777777772  4.08951298701167 9.87402777777772  L 2.27689935064803 9.87402777777772  C 2.27689935064803 9.87402777777772  2.27689935064803 8.56123363715277  2.27689935064803 8.56123363715277  C 2.06915779848663 8.51631861613675  1.86661922599497 8.44870135173653  1.67269480519347 8.35952065972221  C 1.67269480519347 8.35952065972221  1.67269480519347 9.87402777777772  1.67269480519347 9.87402777777772  C 1.67269480519347 10.2191290402068  1.943206394415 10.4988888888889  2.27689935064803 10.4988888888889  C 2.27689935064803 10.4988888888889  4.08951298701167 10.4988888888889  4.08951298701167 10.4988888888889  C 4.20280133928437 10.4988888888889  4.30136220576162 10.4584681857639  4.39161525973895 10.40320703125  C 4.48186831371621 10.4586634548611  4.58042918019347 10.4988888888889  4.69371753246617 10.4988888888889  C 4.69371753246617 10.4988888888889  6.50633116882987 10.4988888888889  6.50633116882987 10.4988888888889  C 6.84002412506284 10.4988888888889  7.11053571428437 10.2191290402068  7.11053571428437 9.87402777777772  C 7.11053571428437 9.87402777777772  7.11053571428437 2.82247013888881  7.11053571428437 2.82247013888881  C 7.11053571428437 2.82247013888881  9.96974491172756 10.3426736111111  9.96974491172756 10.3426736111111  C 10.0021183231383 10.4363196985436  10.0878853029176 10.4988389473303  10.1840487114435 10.4988888888889  Z M 5.29792207792067 5.5  C 5.29792207792067 4.11959495028399  4.21587572103447 3.00055555555554  2.88110389610247 3.00055555555554  C 1.54633207117053 3.00055555555554  0.464285714284332 4.11959495028399  0.464285714284332 5.49999999999993  C 0.464285714284332 6.88040504971594  1.54633207117053 7.99944444444439  2.88110389610247 7.99944444444439  C 4.21587572103447 7.99944444444439  5.29792207792067 6.88040504971594  5.29792207792067 5.5  Z M 4.69371753246617 9.87402777777772  L 4.69371753246617 8.62430555555553  L 6.5063311688298 8.62430555555553  L 6.5063311688298 9.87402777777772  L 4.69371753246617 9.87402777777772  Z M 4.69371753246617 1.12597222222221  L 6.5063311688298 1.12597222222221  L 6.5063311688298 2.37569444444444  L 4.69371753246617 2.37569444444444  L 4.69371753246617 1.12597222222221  Z M 10.3420859628639 9.55261484375001  C 10.3420859628639 9.55261484375001  7.40867289468207 1.96328611111111  7.40867289468207 1.96328611111111  C 7.88486160206844 1.87072855902775  8.61708198559114 1.56630403645832  8.83421799411389 1.44738515624999  C 8.83421799411389 1.44738515624999  11.7676310622957 9.03651861979167  11.7676310622957 9.03651861979167  C 11.2912535409888 9.12927144097225  10.5590331574661 9.43350069444449  10.3420859628639 9.55261484375001  Z M 2.88110389610253 3.62541666666667  C 3.88218276480151 3.62541666666667  4.69371753246617 4.46469621271303  4.69371753246617 5.5  C 4.69371753246617 6.53530378728697  3.88218276480151 7.37458333333333  2.88110389610253 7.37458333333333  C 1.88002502740356 7.37458333333333  1.0684902597389 6.53530378728697  1.0684902597389 5.5  C 1.0684902597389 4.46469621271303  1.88002502740356 3.62541666666667  2.88110389610253 3.62541666666667  Z M 3.25436785351446 6.71923835619619  C 3.27324110573755 6.69971986458086  3.2838439884321 6.67324710896228  3.2838439884321 6.64564379340274  L 3.2838439884321 5.91650898437496  C 3.2838439884321 5.91650898437496  3.98887516740938 5.91650898437496  3.98887516740938 5.91650898437496  C 4.01556597666943 5.91650898437496  4.04116359987087 5.90554360996435  4.06003685209396 5.88602511834902  C 4.07891010431712 5.86650662673362  4.08951298701167 5.84003387111504  4.08951298701167 5.8124305555555  C 4.08951298701167 5.8124305555555  4.08951298701167 5.18756944444443  4.08951298701167 5.18756944444443  C 4.08951298701167 5.1300885154211  4.04445590043194 5.08349101562497  3.98887516740938 5.08349101562497  C 3.98887516740938 5.08349101562497  3.2838439884321 5.08349101562497  3.2838439884321 5.08349101562497  C 3.2838439884321 5.08349101562497  3.2838439884321 4.35435620659719  3.2838439884321 4.35435620659719  C 3.2838439884321 4.29687527757386  3.23878690185238 4.25027777777773  3.18320616882982 4.25027777777773  C 3.18320616882982 4.25027777777773  2.57900162337532 4.25027777777773  2.57900162337532 4.25027777777773  C 2.52342089035276 4.25027777777773  2.47836380377303 4.29687527757386  2.47836380377303 4.35435620659719  C 2.47836380377303 4.35435620659719  2.47836380377303 5.08349101562497  2.47836380377303 5.08349101562497  C 2.47836380377303 5.08349101562497  1.77333262479575 5.08349101562497  1.77333262479575 5.08349101562497  C 1.7466418155357 5.08349101562497  1.72104419233427 5.09445639003558  1.70217094011117 5.11397488165091  C 1.68329768788802 5.13349337326631  1.67269480519347 5.15996612888489  1.67269480519347 5.18756944444443  C 1.67269480519347 5.18756944444443  1.67269480519347 5.8124305555555  1.67269480519347 5.8124305555555  C 1.67269480519347 5.86991148457883  1.71775189177319 5.91650898437496  1.77333262479575 5.91650898437496  C 1.77333262479575 5.91650898437496  2.47836380377303 5.91650898437496  2.47836380377303 5.91650898437496  C 2.47836380377303 5.91650898437496  2.47836380377303 6.64564379340274  2.47836380377303 6.64564379340274  C 2.47836380377303 6.70312472242607  2.52342089035276 6.7497222222222  2.57900162337532 6.7497222222222  C 2.57900162337532 6.7497222222222  3.18320616882982 6.7497222222222  3.18320616882982 6.7497222222222  C 3.20989697808987 6.7497222222222  3.2354946012913 6.7387568478116  3.25436785351446 6.71923835619619  Z " fill-rule="nonzero" fill="#015295" stroke="none" transform="matrix(1 0 0 1 206 501 )" />
  </g>
</svg>