<?xml version="1.0" encoding="utf-8"?>
<svg version="1.1" xmlns:xlink="http://www.w3.org/1999/xlink" width="16px" height="11px" xmlns="http://www.w3.org/2000/svg">
  <g transform="matrix(1 0 0 1 -216 -532 )">
    <path d="M 2.39939294356998 0.239636649773772  C 2.03855696385173 0.239636649773772  1.74501304986916 0.536445747009753  1.74501304986916 0.901233968772879  C 1.74501304986916 0.901233968772879  1.74501304986916 1.12176640843921  1.74501304986916 1.12176640843921  C 1.74501304986916 1.12176640843921  0.654379893700971 1.12176640843921  0.654379893700971 1.12176640843921  C 0.292971331575682 1.12176640843921  0 1.41796904146609  0 1.78336372743832  C 0 1.78336372743832  0 9.501999115761  0 9.501999115761  C 0 10.2327884877054  0.585942663151363 10.8251937537592  1.3087597874018 10.8251937537592  C 1.3087597874018 10.8251937537592  15.050737555121 10.8251937537592  15.050737555121 10.8251937537592  C 15.4115462690104 10.8251937537592  15.705117448822 10.5283846565233  15.705117448822 10.1635964347601  C 15.705117448822 10.1635964347601  15.705117448822 0.901233968772879  15.705117448822 0.901233968772879  C 15.705117448822 0.536445747009753  15.4115462690104 0.239636649773772  15.050737555121 0.239636649773772  C 15.050737555121 0.239636649773772  2.39939294356998 0.239636649773772  2.39939294356998 0.239636649773772  Z M 2.54275667194815 9.94306399509381  C 2.59231810929938 9.80141408308327  2.6176021328193 9.65225060284206  2.61751957480345 9.50199911576108  C 2.61751957480345 9.50199911576108  2.61751957480345 1.12176640843928  2.61751957480345 1.12176640843928  L 14.8326109238873 1.12176640843928  L 14.8326109238873 9.94306399509381  C 14.8326109238873 9.94306399509381  2.54275667194815 9.94306399509381  2.54275667194815 9.94306399509381  Z M 3.81721604658858 7.29667471909739  C 3.81721604658858 7.29667471909739  8.39787530249509 7.29667471909739  8.39787530249509 7.29667471909739  C 8.57856595064324 7.29667471909739  8.7250652493455 7.14855961930643  8.7250652493455 6.96587605959782  C 8.7250652493455 6.96587605959782  8.7250652493455 2.33469482660426  8.7250652493455 2.33469482660426  C 8.7250652493455 2.15201126689557  8.57856595064324 2.00389616710469  8.39787530249509 2.00389616710469  C 8.39787530249509 2.00389616710469  3.81721604658858 2.00389616710469  3.81721604658858 2.00389616710469  C 3.63652539844043 2.00389616710469  3.49002609973817 2.15201126689557  3.49002609973817 2.33469482660426  C 3.49002609973817 2.33469482660426  3.49002609973817 6.96587605959782  3.49002609973817 6.96587605959782  C 3.49002609973817 7.14855961930643  3.63652539844043 7.29667471909739  3.81721604658858 7.29667471909739  Z M 0.872506524934433 9.501999115761  C 0.872506524934433 9.501999115761  0.872506524934433 2.00389616710469  0.872506524934433 2.00389616710469  L 1.74501304986901 2.00389616710469  C 1.74501304986901 2.00389616710469  1.74501304986901 9.501999115761  1.74501304986901 9.501999115761  C 1.74501304986901 9.74519126360309  1.54929892999469 9.94306399509374  1.30875978740165 9.94306399509374  C 1.06822064480875 9.94306399509374  0.872506524934433 9.74519126360309  0.872506524934433 9.501999115761  Z M 3.81721604658858 8.17880447776286  C 3.63652539844043 8.17880447776286  3.49002609973817 8.32691957755382  3.49002609973817 8.50960313726243  C 3.49002609973817 8.50960313726243  3.49002609973817 8.73013557692877  3.49002609973817 8.73013557692877  C 3.49002609973817 8.91281913663738  3.63652539844043 9.06093423642834  3.81721604658858 9.06093423642834  C 3.81721604658858 9.06093423642834  8.39787530249509 9.06093423642834  8.39787530249509 9.06093423642834  C 8.57856595064324 9.06093423642834  8.7250652493455 8.91281913663738  8.7250652493455 8.73013557692877  C 8.7250652493455 8.73013557692877  8.7250652493455 8.50960313726243  8.7250652493455 8.50960313726243  C 8.7250652493455 8.32691957755382  8.57856595064324 8.17880447776286  8.39787530249509 8.17880447776286  C 8.39787530249509 8.17880447776286  3.81721604658858 8.17880447776286  3.81721604658858 8.17880447776286  Z M 9.59757177428037 8.50960313726243  C 9.59757177428037 8.50960313726243  9.59757177428037 8.73013557692877  9.59757177428037 8.73013557692877  C 9.59757177428037 8.91281913663738  9.74407107298262 9.06093423642834  9.92476172113078 9.06093423642834  C 9.92476172113078 9.06093423642834  13.6329144521027 9.06093423642834  13.6329144521027 9.06093423642834  C 13.8136051002509 9.06093423642834  13.9601043989531 8.91281913663738  13.9601043989531 8.73013557692877  C 13.9601043989531 8.73013557692877  13.9601043989531 8.50960313726243  13.9601043989531 8.50960313726243  C 13.9601043989531 8.32691957755382  13.8136051002509 8.17880447776286  13.6329144521027 8.17880447776286  C 13.6329144521027 8.17880447776286  9.92476172113078 8.17880447776286  9.92476172113078 8.17880447776286  C 9.74407107298262 8.17880447776286  9.59757177428037 8.32691957755382  9.59757177428037 8.50960313726243  Z M 9.59757177428037 6.96587605959789  C 9.59757177428037 7.1485596193065  9.74407107298262 7.29667471909746  9.92476172113078 7.29667471909746  C 9.92476172113078 7.29667471909746  13.6329144521027 7.29667471909746  13.6329144521027 7.29667471909746  C 13.8136051002509 7.29667471909746  13.9601043989531 7.1485596193065  13.9601043989531 6.96587605959789  C 13.9601043989531 6.96587605959789  13.9601043989531 6.74534361993156  13.9601043989531 6.74534361993156  C 13.9601043989531 6.56266006022295  13.8136051002509 6.41454496043199  13.6329144521027 6.41454496043199  C 13.6329144521027 6.41454496043199  9.92476172113078 6.41454496043199  9.92476172113078 6.41454496043199  C 9.74407107298262 6.41454496043199  9.59757177428037 6.56266006022295  9.59757177428037 6.74534361993156  C 9.59757177428037 6.74534361993156  9.59757177428037 6.96587605959789  9.59757177428037 6.96587605959789  Z M 9.92476172113078 3.76815568443564  C 9.92476172113078 3.76815568443564  13.6329144521027 3.76815568443564  13.6329144521027 3.76815568443564  C 13.8136051002509 3.76815568443564  13.9601043989531 3.62004058464468  13.9601043989531 3.43735702493606  C 13.9601043989531 3.43735702493606  13.9601043989531 3.21682458526973  13.9601043989531 3.21682458526973  C 13.9601043989531 3.03414102556112  13.8136051002509 2.88602592577016  13.6329144521027 2.88602592577016  C 13.6329144521027 2.88602592577016  9.92476172113078 2.88602592577016  9.92476172113078 2.88602592577016  C 9.74407107298262 2.88602592577016  9.59757177428037 3.03414102556112  9.59757177428037 3.21682458526973  C 9.59757177428037 3.21682458526973  9.59757177428037 3.43735702493606  9.59757177428037 3.43735702493606  C 9.59757177428037 3.62004058464468  9.74407107298262 3.76815568443564  9.92476172113078 3.76815568443564  Z M 7.85255872441077 2.88602592577016  L 7.85255872441077 6.41454496043199  L 4.3625326246726 6.41454496043199  L 4.3625326246726 2.88602592577016  L 7.85255872441077 2.88602592577016  Z M 13.6329144521027 5.53241520176651  C 13.6329144521027 5.53241520176651  9.92476172113078 5.53241520176651  9.92476172113078 5.53241520176651  C 9.74407107298262 5.53241520176651  9.59757177428037 5.38430010197555  9.59757177428037 5.20161654226694  C 9.59757177428037 5.20161654226694  9.59757177428037 4.98108410260061  9.59757177428037 4.98108410260061  C 9.59757177428037 4.798400542892  9.74407107298262 4.65028544310104  9.92476172113078 4.65028544310104  C 9.92476172113078 4.65028544310104  13.6329144521027 4.65028544310104  13.6329144521027 4.65028544310104  C 13.8136051002509 4.65028544310104  13.9601043989531 4.798400542892  13.9601043989531 4.98108410260061  C 13.9601043989531 4.98108410260061  13.9601043989531 5.20161654226694  13.9601043989531 5.20161654226694  C 13.9601043989531 5.38430010197555  13.8136051002509 5.53241520176651  13.6329144521027 5.53241520176651  Z " fill-rule="nonzero" fill="#015295" stroke="none" transform="matrix(1 0 0 1 216 532 )" />
  </g>
</svg>