<?xml version="1.0" encoding="utf-8"?>
<svg version="1.1" xmlns:xlink="http://www.w3.org/1999/xlink" width="14px" height="11px" xmlns="http://www.w3.org/2000/svg">
  <g transform="matrix(1 0 0 1 -229 -320 )">
    <path d="M 0.0630754687500002 5.7378066796875  C 0.0630754687500002 5.7378066796875  1.56615046875 7.2140410546875  1.56615046875 7.2140410546875  C 1.64999439916387 7.29633381403647  1.78587400708613 7.29633381403647  1.8697179375 7.2140410546875  C 1.8697179375 7.2140410546875  4.2316929375 4.8942441796875  4.2316929375 4.8942441796875  C 4.27201336306464 4.85468779270861  4.29466891479888 4.80101138471239  4.29466891479888 4.7450390625  C 4.29466891479888 4.68906674028761  4.27201336306464 4.63539033229139  4.2316929375 4.5958339453125  C 4.2316929375 4.5958339453125  3.92812546875 4.296896484375  3.92812546875 4.296896484375  C 3.88781778142945 4.25705337137063  3.83299263393254 4.2346481649595  3.775804921875 4.2346481649595  C 3.71861720981746 4.2346481649595  3.66379206232055 4.25705337137063  3.623484375 4.296896484375  C 3.623484375 4.296896484375  1.7178 6.16855078125  1.7178 6.16855078125  C 1.7178 6.16855078125  0.671015625 5.140458984375  0.671015625 5.140458984375  C 0.587171694586128 5.05816622502603  0.451292086663872 5.05816622502603  0.36744815625 5.140458984375  C 0.36744815625 5.140458984375  0.06307546875 5.4393964453125  0.06307546875 5.4393964453125  C 0.0227550431853636 5.47895283229139  9.94914511231585E-05 5.5326292402876  9.94914511232271E-05 5.5886015625  C 9.94914511232956E-05 5.64457388471239  0.0227550431853638 5.69825029270861  0.0630754687500002 5.7378066796875  Z M 1.71592115625 10.6499765625  C 2.19027852787967 10.6499765625  2.57482115625 10.2723007667791  2.57482115625 9.8064140625  C 2.57482115625 9.34052735822086  2.19027852787967 8.9628515625  1.71592115625 8.9628515625  C 1.2416473125 8.9628515625  0.84628490625 9.34060939453125  0.84628490625 9.8064140625  C 0.84628490625 10.2722187304688  1.2416473125 10.6499765625  1.71592115625 10.6499765625  Z M 1.56615046875 2.9962285546875  C 1.64999439916387 3.07852131403647  1.78587400708613 3.07852131403647  1.8697179375 2.9962285546875  C 1.8697179375 2.9962285546875  4.2316929375 0.6764316796875  4.2316929375 0.6764316796875  C 4.27201336306464 0.636875292708606  4.29466891479887 0.583198884712392  4.29466891479887 0.5272265625  C 4.29466891479887 0.471254240287608  4.27201336306464 0.417577832291394  4.2316929375 0.3780214453125  C 4.2316929375 0.3780214453125  3.92812546875 0.079083984375  3.92812546875 0.079083984375  C 3.88781778142945 0.0392408713706291  3.83299263393253 0.0168356649595044  3.775804921875 0.0168356649595044  C 3.71861720981746 0.0168356649595044  3.66379206232055 0.0392408713706295  3.623484375 0.0790839843750002  C 3.623484375 0.0790839843750002  1.7178 1.95073828125  1.7178 1.95073828125  C 1.7178 1.95073828125  0.671015625 0.922646484375  0.671015625 0.922646484375  C 0.587171694586128 0.840353725026031  0.451292086663872 0.840353725026031  0.36744815625 0.922646484375  C 0.36744815625 0.922646484375  0.06307546875 1.2215839453125  0.06307546875 1.2215839453125  C 0.022755043185364 1.26114033229139  9.94914511236145E-05 1.31481674028761  9.94914511236085E-05 1.3707890625  C 9.94914511236026E-05 1.42676138471239  0.0227550431853639 1.48043779270861  0.06307546875 1.5199941796875  C 0.06307546875 1.5199941796875  1.56615046875 2.9962285546875  1.56615046875 2.9962285546875  Z M 5.368125 10.2281953125  C 5.368125 10.2281953125  13.527675 10.2281953125  13.527675 10.2281953125  C 13.6462643429074 10.2281953125  13.7424 10.1337763635698  13.7424 10.0173046875  C 13.7424 10.0173046875  13.7424 9.5955234375  13.7424 9.5955234375  C 13.7424 9.47905176143022  13.6462643429074 9.3846328125  13.527675 9.3846328125  C 13.527675 9.3846328125  5.368125 9.3846328125  5.368125 9.3846328125  C 5.24953565709258 9.3846328125  5.1534 9.47905176143022  5.1534 9.5955234375  C 5.1534 9.5955234375  5.1534 10.0173046875  5.1534 10.0173046875  C 5.1534 10.1337763635698  5.24953565709258 10.2281953125  5.368125 10.2281953125  Z M 13.527675 1.7925703125  C 13.6462643429074 1.7925703125  13.7424 1.69815136356978  13.7424 1.5816796875  C 13.7424 1.5816796875  13.7424 1.1598984375  13.7424 1.1598984375  C 13.7424 1.04342676143021  13.6462643429074 0.949007812499999  13.527675 0.949007812499999  C 13.527675 0.949007812499999  5.368125 0.949007812499999  5.368125 0.949007812499999  C 5.24953565709258 0.949007812499999  5.1534 1.04342676143021  5.1534 1.1598984375  C 5.1534 1.1598984375  5.1534 1.5816796875  5.1534 1.5816796875  C 5.1534 1.69815136356978  5.24953565709258 1.7925703125  5.368125 1.7925703125  C 5.368125 1.7925703125  13.527675 1.7925703125  13.527675 1.7925703125  Z M 13.7424 5.7994921875  C 13.7424 5.7994921875  13.7424 5.3777109375  13.7424 5.3777109375  C 13.7424 5.26123926143021  13.6462643429074 5.1668203125  13.527675 5.1668203125  C 13.527675 5.1668203125  5.368125 5.1668203125  5.368125 5.1668203125  C 5.24953565709258 5.1668203125  5.1534 5.26123926143021  5.1534 5.3777109375  C 5.1534 5.3777109375  5.1534 5.7994921875  5.1534 5.7994921875  C 5.1534 5.91596386356978  5.24953565709258 6.0103828125  5.368125 6.0103828125  C 5.368125 6.0103828125  13.527675 6.0103828125  13.527675 6.0103828125  C 13.6462643429074 6.0103828125  13.7424 5.91596386356978  13.7424 5.7994921875  Z " fill-rule="nonzero" fill="#015295" stroke="none" transform="matrix(1 0 0 1 229 320 )" />
  </g>
</svg>