<?xml version="1.0" encoding="utf-8"?>
<svg version="1.1" xmlns:xlink="http://www.w3.org/1999/xlink" width="10px" height="11px" xmlns="http://www.w3.org/2000/svg">
  <g transform="matrix(1 0 0 1 -216 -350 )">
    <path d="M 8.86166666666667 4.63132352941177  C 8.86166666666667 5.9485215625  8.19721208333333 7.11786872702206  7.17658666666667 7.84037587316177  C 7.14682389863238 7.8613060312681  7.12773022778999 7.89361299312877  7.1241409375 7.92911534007353  C 7.10712057291667 8.100660390625  7.08439125 8.28250186580882  7.05789145833334 8.46740332261029  C 7.04302260416667 8.5710912132353  7.15914026041667 8.64488225643382  7.25120786458333 8.59036082720588  C 8.59766994791667 7.79307021139706  9.54333333333333 6.34222541360294  9.54333333333333 4.63132352941177  C 9.54333333333333 2.07177295955882  7.4091628125 0  4.77166666666667 0  C 2.1345965625 0  0 2.07138012408088  0 4.63132352941177  C 0 6.32678077665441  0.932285677083334 7.78544093290441  2.29208286458333 8.59038150275735  C 2.38419307291667 8.64490293198529  2.50031072916667 8.57115323988971  2.48546317708333 8.46746534926471  C 2.45896338541667 8.28254321691176  2.43621276041667 8.100660390625  2.41919239583333 7.92911534007353  C 2.41560773215549 7.89362224690244  2.39652161879478 7.86132247743741  2.36676796875 7.84039654871324  C 1.33975192708333 7.11336145680147  0.673358854166667 5.93386259650735  0.681751875000001 4.60655421875  C 0.695300000000001 2.46380209099265  2.47854 0.706628322610295  4.68577666666667 0.662486020220589  C 6.98013885416667 0.616586295955882  8.86166666666667 2.41469765625  8.86166666666667 4.63132352941177  Z M 5.69679484375 10.101309453125  C 5.58723822916667 10.4943516865809  5.17338135416667 10.5858823529412  4.77166666666667 10.5858823529412  C 4.36997328125 10.5858823529412  3.95609510416667 10.4943516865809  3.84655979166667 10.1012887775735  C 3.68370536458333 9.51352420036765  3.40833333333333 8.04068061580882  3.40833333333333 7.35532743566176  C 3.40833333333333 6.62845774816176  4.0717228125 6.45077205882353  4.77166666666667 6.45077205882353  C 5.47161052083334 6.45077205882353  6.135 6.62845774816176  6.135 7.35532743566176  C 6.135 8.03656618106618  5.86082088541667 9.50928571231618  5.69679484375 10.101309453125  Z M 2.38647239583333 6.50113770220588  C 1.95998338541667 5.98970726102941  1.70416666666667 5.33900630514706  1.70416666666667 4.63132352941176  C 1.70416666666667 2.98151789981618  3.09387197916667 1.64085311580882  4.79676052083333 1.65414749540441  C 6.44944005208333 1.66704903952206  7.80440166666667 2.96497745863971  7.838485 4.56875931066176  C 7.85403552083334 5.29980545955882  7.59645072916667 5.97316681985294  7.15835208333333 6.49938028033088  C 7.10002697916667 6.56942904871323  6.98785020833333 6.55878113970588  6.94471348958333 6.47901486213235  C 6.87980766428987 6.35889498508013  6.80022454907928 6.24680425050477  6.70768520833333 6.14516673253676  C 6.66816984375 6.10174807444853  6.66693432291667 6.03734373161765  6.70206145833333 5.99049293198529  C 6.98836145833333 5.60853279411765  7.1575 5.13876358915441  7.1575 4.63132352941176  C 7.1575 3.32419448988971  6.03588140625 2.26655732996324  4.67772447916667 2.31741918658088  C 3.44791260416667 2.36348431525735  2.447609375 3.32481475643382  2.38864520833333 4.51798015625  C 2.36142114583333 5.06869414522059  2.533755 5.58022796415441  2.841271875 5.99049293198529  C 2.87637770833333 6.03734373161765  2.87518479166667 6.10174807444853  2.83566942708333 6.14516673253676  C 2.74313237125213 6.24678641363338  2.66355584485266 6.35886405798984  2.59866244791667 6.47897351102941  C 2.555994375 6.55787141544117  2.44422234375 6.57040079963235  2.38647239583333 6.50113770220588  Z M 5.45333333333334 7.35532743566176  C 5.45333333333334 7.01796446231617  4.09 7.01831594669117  4.09 7.35532743566176  C 4.09 7.92756467371323  4.33454791666667 9.29479754136029  4.49495260416667 9.89318935202206  C 4.62357458333334 9.93489193933823  4.9198865625 9.93487126378676  5.04840203125 9.89318935202206  C 5.20863630208333 9.29574861672794  5.45333333333334 7.92777142922794  5.45333333333334 7.35532743566176  Z M 4.77166666666667 5.95455882352941  C 4.01872322916667 5.95455882352941  3.40833333333333 5.36212157169118  3.40833333333333 4.63132352941176  C 3.40833333333333 3.90052548713235  4.01872322916667 3.30808823529412  4.77166666666667 3.30808823529412  C 5.52461010416667 3.30808823529412  6.135 3.90052548713235  6.135 4.63132352941176  C 6.135 5.36212157169118  5.52461010416667 5.95455882352941  4.77166666666667 5.95455882352941  Z M 4.09 4.63132352941176  C 4.09 4.99614363511029  4.39579140625 5.29294117647059  4.77166666666667 5.29294117647059  C 5.14754192708333 5.29294117647059  5.45333333333334 4.99614363511029  5.45333333333334 4.63132352941176  C 5.45333333333334 4.26650342371324  5.14754192708333 3.96970588235294  4.77166666666667 3.96970588235294  C 4.39579140625 3.96970588235294  4.09 4.26650342371324  4.09 4.63132352941176  Z " fill-rule="nonzero" fill="#015295" stroke="none" transform="matrix(1 0 0 1 216 350 )" />
  </g>
</svg>