<?xml version="1.0" encoding="utf-8"?>
<svg version="1.1" xmlns:xlink="http://www.w3.org/1999/xlink" width="16px" height="11px" xmlns="http://www.w3.org/2000/svg">
  <g transform="matrix(1 0 0 1 -188 -380 )">
    <path d="M 15.670345238095 8.84561053240765  C 15.670345238095 8.84561053240765  15.670345238095 2.15438946759283  15.670345238095 2.15438946759283  C 15.6729670329668 1.67272569444469  15.2665888278386 1.3342592592595  14.8313708791206 1.3342592592595  C 14.6688195970693 1.3342592592595  14.5036465201463 1.38112384259283  14.3542042124539 1.48266377314837  C 14.3542042124539 1.48266377314837  11.478095238095 3.30257175925949  11.478095238095 3.30257175925949  C 11.478095238095 3.30257175925949  11.478095238095 1.74562615740764  11.478095238095 1.74562615740764  C 11.478095238095 1.05827893518541  10.8698388278386 0.50111111111135  10.1200054945052 0.50111111111135  C 10.1200054945052 0.50111111111135  1.92951831501803 0.50111111111135  1.92951831501803 0.50111111111135  C 1.17968498168473 0.50111111111135  0.571428571428302 1.05827893518541  0.571428571428302 1.74562615740764  C 0.571428571428302 1.74562615740764  0.571428571428302 9.25437384259281  0.571428571428302 9.25437384259281  C 0.571428571428302 9.94172106481507  1.17968498168473 10.4988888888891  1.92951831501803 10.4988888888891  C 1.92951831501803 10.4988888888891  10.1200054945052 10.4988888888891  10.1200054945052 10.4988888888891  C 10.8698388278386 10.4988888888891  11.478095238095 9.94172106481507  11.478095238095 9.25437384259281  C 11.478095238095 9.25437384259281  11.478095238095 7.69742824074099  11.478095238095 7.69742824074099  C 11.478095238095 7.69742824074099  14.3515824175822 9.51733622685208  14.3515824175822 9.51733622685208  C 14.5010247252745 9.62147974537062  14.6688195970693 9.66574074074098  14.8287490842488 9.66574074074098  C 15.2639670329668 9.66574074074098  15.670345238095 9.32727430555583  15.670345238095 8.84561053240765  Z M 1.9295183150181 1.33425925925954  C 1.9295183150181 1.33425925925954  10.1200054945053 1.33425925925954  10.1200054945053 1.33425925925954  C 10.4005375457873 1.33425925925954  10.6391208791207 1.52171759259289  10.6391208791207 1.74562615740767  C 10.6391208791207 1.74562615740767  10.6391208791207 9.25437384259288  10.6391208791207 9.25437384259288  C 10.6391208791207 9.47828240740774  10.4005375457873 9.66574074074105  10.1200054945053 9.66574074074105  C 10.1200054945053 9.66574074074105  1.9295183150181 9.66574074074105  1.9295183150181 9.66574074074105  C 1.64898626373602 9.66574074074105  1.4104029304027 9.47828240740774  1.4104029304027 9.25437384259288  C 1.4104029304027 9.25437384259288  1.4104029304027 1.74562615740767  1.4104029304027 1.74562615740767  C 1.4104029304027 1.52171759259289  1.64898626373602 1.33425925925954  1.9295183150181 1.33425925925954  Z M 11.4780952380949 4.28933159722249  L 14.8339926739924 2.16740740740766  L 14.8339926739924 8.84561053240765  L 14.8025311355308 8.81176388888912  L 11.4780952380949 6.70806481481506  L 11.4780952380949 4.28933159722249  Z " fill-rule="nonzero" fill="#015295" stroke="none" transform="matrix(1 0 0 1 188 380 )" />
  </g>
</svg>