<?xml version="1.0" encoding="utf-8"?>
<svg version="1.1" xmlns:xlink="http://www.w3.org/1999/xlink" width="36px" height="41px" xmlns="http://www.w3.org/2000/svg">
  <g transform="matrix(1 0 0 1 -279 -1740 )">
    <path d="M 34.0714285714286 0  C 35.1401785714286 0  36 0.8568359375  36 1.921875  C 36 1.921875  36 31.390625  36 31.390625  C 36 32.19140625  35.5017857142857 32.880078125  34.8026785714286 33.168359375  C 34.5133928571429 34.4576171875  34.4491071428571 36.819921875  34.7705357142857 38.4375  C 34.7705357142857 38.4375  35.0357142857143 38.4375  35.0357142857143 38.4375  C 35.5660714285714 38.4375  36 38.869921875  36 39.3984375  C 36 39.3984375  36 40.0390625  36 40.0390625  C 36 40.567578125  35.5660714285714 41  35.0357142857143 41  C 35.0357142857143 41  6.42857142857143 41  6.42857142857143 41  C 2.87678571428571 41  0 38.133203125  0 34.59375  C 0 34.59375  0 6.40625  0 6.40625  C 0 2.866796875  2.87678571428571 0  6.42857142857143 0  C 6.42857142857143 0  34.0714285714286 0  34.0714285714286 0  Z M 11 30  L 33 30  L 33 3  L 11 3  L 11 30  Z M 8 2.5625  C 7.71428571428571 2.5625  6.42857142857143 2.5625  6.42857142857143 2.5625  C 4.29910714285714 2.5625  2.57142857142857 4.2841796875  2.57142857142857 6.40625  C 2.57142857142857 6.40625  2.57142857142857 32.03125  2.57142857142857 32.03125  C 3.64821428571429 31.23046875  4.98214285714286 30.75  6.42857142857143 30.75  C 6.42857142857143 30.75  7.71428571428571 30.75  8 30.75  L 8 2.5625  Z M 6.42857142857143 33.3125  C 1.28571428571429 33.3125  1.28571428571429 38.4375  6.42857142857143 38.4375  C 6.42857142857143 38.4375  32.4883928571429 38.4375  32.4883928571429 38.4375  C 32.2392857142857 36.80390625  32.2553571428571 34.81796875  32.4883928571429 33.3125  C 32.4883928571429 33.3125  6.42857142857143 33.3125  6.42857142857143 33.3125  Z M 29.5714285714286 11.2109375  C 29.5714285714286 11.2109375  29.5714285714286 11.8515625  29.5714285714286 11.8515625  C 29.5714285714286 12.380078125  29.1375 12.8125  28.6071428571429 12.8125  C 28.6071428571429 12.8125  15.1071428571429 12.8125  15.1071428571429 12.8125  C 14.5767857142857 12.8125  14.1428571428571 12.380078125  14.1428571428571 11.8515625  C 14.1428571428571 11.8515625  14.1428571428571 11.2109375  14.1428571428571 11.2109375  C 14.1428571428571 10.682421875  14.5767857142857 10.25  15.1071428571429 10.25  C 15.1071428571429 10.25  28.6071428571429 10.25  28.6071428571429 10.25  C 29.1375 10.25  29.5714285714286 10.682421875  29.5714285714286 11.2109375  Z M 15.1071428571429 17.9375  C 14.5767857142857 17.9375  14.1428571428571 17.505078125  14.1428571428571 16.9765625  C 14.1428571428571 16.9765625  14.1428571428571 16.3359375  14.1428571428571 16.3359375  C 14.1428571428571 15.807421875  14.5767857142857 15.375  15.1071428571429 15.375  C 15.1071428571429 15.375  28.6071428571429 15.375  28.6071428571429 15.375  C 29.1375 15.375  29.5714285714286 15.807421875  29.5714285714286 16.3359375  C 29.5714285714286 16.3359375  29.5714285714286 16.9765625  29.5714285714286 16.9765625  C 29.5714285714286 17.505078125  29.1375 17.9375  28.6071428571429 17.9375  C 28.6071428571429 17.9375  15.1071428571429 17.9375  15.1071428571429 17.9375  Z " fill-rule="nonzero" fill="#6c41a0" stroke="none" transform="matrix(1 0 0 1 279 1740 )" />
  </g>
</svg>