<?xml version="1.0" encoding="utf-8"?>
<svg version="1.1" xmlns:xlink="http://www.w3.org/1999/xlink" width="52px" height="41px" xmlns="http://www.w3.org/2000/svg">
  <g transform="matrix(1 0 0 1 -515 -1740 )">
    <path d="M 28.7276785714286 5.23775727466288  C 26.1547619047619 4.22900402176484  23.3883928571429 3.72462739531583  20.4285714285714 3.72462739531583  C 17.46875 3.72462739531583  14.702380952381 4.22900402176484  12.1294642857143 5.23775727466288  C 9.55654761904762 6.24651052756091  7.51078869047619 7.61414714927844  5.9921875 9.34066713981547  C 4.47358630952381 11.0671871303525  3.71428571428571 12.9198012775018  3.71428571428571 14.8985095812633  C 3.71428571428571 16.4892358646794  4.22693452380952 18.0217648450438  5.25223214285714 19.4960965223563  C 6.27752976190476 20.9704281996688  7.71875 22.2507688668086  9.57589285714286 23.3371185237757  L 12.390625 24.9666430092264  L 11.375 27.4109297374024  C 12.0327380952381 27.022947717057  12.6324404761905 26.6446652472202  13.1741071428571 26.2760823278921  L 14.4508928571429 25.3740241305891  L 15.9888392857143 25.6650106458481  C 17.4977678571429 25.9365980600899  18.9776785714286 26.0723917672108  20.4285714285714 26.0723917672108  C 23.3883928571429 26.0723917672108  26.1547619047619 25.5680151407618  28.7276785714286 24.5592618878637  C 31.3005952380952 23.5505086349657  33.3463541666667 22.1828720132482  34.8649553571429 20.4563520227111  C 36.3835565476191 18.7298320321741  37.1428571428571 16.8772178850248  37.1428571428571 14.8985095812633  C 37.1428571428571 12.9198012775018  36.3835565476191 11.0671871303525  34.8649553571429 9.34066713981547  C 33.3463541666667 7.61414714927844  31.3005952380952 6.24651052756091  28.7276785714286 5.23775727466288  Z M 10.1707589285714 1.99325762952449  C 13.3143601190476 0.664419209841494  16.733630952381 0  20.4285714285714 0  C 24.1235119047619 0  27.5427827380952 0.664419209841494  30.6863839285714 1.99325762952449  C 33.8299851190476 3.32209604920747  36.3110119047619 5.13106221906789  38.1294642857143 7.42015613910575  C 39.9479166666667 9.7092500591436  40.8571428571429 12.2020345398628  40.8571428571429 14.8985095812633  C 40.8571428571429 17.5949846226638  39.9479166666667 20.087769103383  38.1294642857143 22.3768630234209  C 36.3110119047619 24.6659569434587  33.8299851190476 26.4749231133191  30.6863839285714 27.8037615330021  C 27.5427827380952 29.1325999526851  24.1235119047619 29.7970191625266  20.4285714285714 29.7970191625266  C 18.764880952381 29.7970191625266  17.0625 29.6418263543884  15.3214285714286 29.3314407381121  C 12.922619047619 31.0385616276319  10.233630952381 32.2801040927372  7.25446428571429 33.056068133428  C 6.55803571428571 33.2306600425834  5.72619047619048 33.3858528507215  4.75892857142857 33.5216465578424  L 4.671875 33.5216465578424  C 4.45907738095238 33.5216465578424  4.26078869047619 33.4440501537734  4.07700892857143 33.2888573456352  C 3.89322916666667 33.133664537497  3.78199404761905 32.9299739768157  3.74330357142857 32.6777856635912  C 3.72395833333333 32.6195883605394  3.71428571428571 32.5565412822333  3.71428571428571 32.4886444286728  C 3.71428571428571 32.4207475751124  3.71912202380952 32.3577004968062  3.72879464285714 32.2995031937544  C 3.73846726190476 32.2413058907026  3.7578125 32.1831085876508  3.78683035714286 32.124911284599  L 3.859375 31.9794180269695  C 3.859375 31.9794180269695  3.89322916666667 31.926070499172  3.9609375 31.819375443577  C 4.02864583333333 31.712680387982  4.06733630952381 31.6641826354388  4.07700892857143 31.6738821859475  C 4.08668154761905 31.6835817364561  4.13020833333333 31.6350839839129  4.20758928571429 31.528388928318  C 4.28497023809524 31.421693872723  4.32366071428571 31.3780458954341  4.32366071428571 31.3974449964514  C 4.42038690476191 31.2810503903478  4.64285714285714 31.0385616276319  4.99107142857143 30.6699787083038  C 5.33928571428571 30.3013957889756  5.59077380952381 30.0152590489709  5.74553571428571 29.8115684882896  C 5.90029761904762 29.6078779276082  6.11793154761905 29.3265909628578  6.3984375 28.9677075940383  C 6.67894345238095 28.6088242252188  6.92075892857143 28.2353915306364  7.12388392857143 27.847409510291  C 7.32700892857143 27.4594274899456  7.52529761904762 27.0326472675657  7.71875 26.5670688431512  C 5.31994047619048 25.1703335699077  3.43377976190476 23.4535131298793  2.06026785714286 21.416607523066  C 0.686755952380952 19.3797019162527  0 17.2070026023184  0 14.8985095812633  C 0 12.2020345398628  0.90922619047619 9.7092500591436  2.72767857142857 7.42015613910575  C 4.54613095238095 5.13106221906789  7.02715773809524 3.32209604920747  10.1707589285714 1.99325762952449  Z M 49.9397321428571 28.8804116394606  C 48.5662202380952 30.9076176957653  46.6800595238095 32.6195883605394  44.28125 34.0163236337828  C 44.4747023809524 34.4819020581973  44.6729910714286 34.9086822805772  44.8761160714286 35.2966643009226  C 45.0792410714286 35.684646321268  45.3210565476191 36.0580790158505  45.6015625 36.41696238467  C 45.8820684523809 36.7758457534895  46.0997023809524 37.0571327182399  46.2544642857143 37.2608232789212  C 46.4092261904762 37.4645138396026  46.6607142857143 37.7506505796073  47.0089285714286 38.1192334989354  C 47.3571428571429 38.4878164182635  47.5796130952381 38.7303051809794  47.6763392857143 38.846699787083  C 47.6956845238095 38.8660988881003  47.734375 38.9097468653892  47.7924107142857 38.9776437189496  C 47.8504464285714 39.04554057251  47.8939732142857 39.0940383250532  47.9229910714286 39.1231369765791  C 47.9520089285714 39.152235628105  47.9906994047619 39.2007333806482  48.0390625 39.2686302342087  C 48.0874255952381 39.3365270877691  48.1212797619048 39.3898746155666  48.140625 39.4286728176011  L 48.2131696428571 39.5741660752307  C 48.2131696428571 39.5741660752307  48.2325148809524 39.6323633782825  48.2712053571429 39.7487579843861  C 48.3098958333333 39.8651525904897  48.3147321428571 39.9281996687958  48.2857142857143 39.9378992193045  C 48.2566964285714 39.9475987698131  48.2470238095238 40.0106458481192  48.2566964285714 40.1270404542229  C 48.1986607142857 40.3986278684646  48.0729166666667 40.6120179796546  47.8794642857143 40.7672107877928  C 47.6860119047619 40.9224035959309  47.4732142857143 40.9903004494914  47.2410714285714 40.9709013484741  C 46.2738095238095 40.8351076413532  45.4419642857143 40.679914833215  44.7455357142857 40.5053229240596  C 41.7663690476191 39.7293588833688  39.0773809523809 38.4878164182635  36.6785714285714 36.7806955287438  C 34.9375 37.0910811450201  33.2351190476191 37.2462739531583  31.5714285714286 37.2462739531583  C 26.328869047619 37.2462739531583  21.7633928571429 35.9659332860185  17.875 33.4052519517388  C 18.9970238095238 33.4828483558079  19.8482142857143 33.5216465578424  20.4285714285714 33.5216465578424  C 23.5431547619048 33.5216465578424  26.531994047619 33.0851667849539  29.3950892857143 32.2122072391767  C 32.2581845238095 31.3392476933996  34.8117559523809 30.0880056777857  37.0558035714286 28.458481192335  C 39.4739583333333 26.6737638987462  41.3311011904762 24.6174591909155  42.6272321428571 22.2895670688432  C 43.9233630952381 19.9616749467708  44.5714285714286 17.4979891175775  44.5714285714286 14.8985095812633  C 44.5714285714286 13.4047788029335  44.3489583333333 11.930447125621  43.9040178571429 10.4755145493258  C 46.3995535714286 11.8528507215519  48.3727678571429 13.579370712089  49.8236607142857 15.6550745209368  C 51.2745535714286 17.7307783297847  52 19.9616749467708  52 22.347764371895  C 52 24.6756564939674  51.3132440476191 26.8532055831559  49.9397321428571 28.8804116394606  Z " fill-rule="nonzero" fill="#015295" stroke="none" transform="matrix(1 0 0 1 515 1740 )" />
  </g>
</svg>
