<svg xmlns="http://www.w3.org/2000/svg" width="141" height="30" viewBox="0 0 141 30">
  <g fill="none" fill-rule="evenodd">
    <path fill="#404040" d="M128.479839,3 C135.627016,3 141,8.54939516 141,15.5 C141,22.9143145 135.027218,28 128.479839,28 C121.725806,28 116,22.4808468 116,15.5 C116,8.80141129 121.277218,3 128.479839,3 Z M128.520161,5.25302419 C122.5625,5.25302419 118.253024,10.1875 118.253024,15.5 C118.253024,21.0342742 122.849798,25.7217742 128.520161,25.7217742 C133.721774,25.7217742 138.74194,21.6340726 138.74194,15.5 C138.746976,9.7641129 134.195565,5.25302419 128.520161,5.25302419 Z M122.940524,13.7358871 C123.595766,9.50705645 126.997984,8.91229839 128.429435,8.91229839 C133.459677,8.91229839 134.855847,13.0705645 134.855847,15.6764113 C134.855847,18.8820565 132.789315,22.375 128.358871,22.375 C126.398185,22.375 123.363911,21.3669355 122.844758,17.4858871 L125.99496,17.4858871 C126.070565,19.0030242 126.982863,19.7641129 128.741935,19.7641129 C129.916331,19.7641129 131.665323,18.8467742 131.665323,15.5907258 C131.665323,11.4324597 129.190524,11.5282258 128.80746,11.5282258 C127.139113,11.5282258 126.201613,12.2641129 125.99496,13.7358871 L126.912298,13.7358871 L124.43246,16.2157258 L121.962702,13.7358871 L122.940524,13.7358871 Z"/>
    <path fill="#000" d="M14.86875,12.5092742 L12.8594758,13.5544355 C12.2891129,12.3701613 11.3328629,12.3489919 11.1985887,12.3489919 C9.86008065,12.3489919 9.18931452,13.2326613 9.18931452,15.0006048 C9.18931452,16.4262097 9.74637097,17.6522177 11.1985887,17.6522177 C12.0737903,17.6522177 12.6895161,17.2233871 13.0475806,16.3663306 L14.8953629,17.3038306 C14.5221774,18 13.3415323,19.6614919 10.9578629,19.6614919 C9.59092742,19.6614919 6.48447581,19.0372984 6.48447581,15.0012097 C6.48447581,11.4514113 9.08528226,10.3403222 10.8774194,10.3403222 C12.7354839,10.3397177 14.0649194,11.0631048 14.86875,12.5092742 Z M23.5209677,12.5092742 L21.5383065,13.5544355 C20.9637097,12.3586694 19.9826613,12.3489919 19.8508065,12.3489919 C18.5116935,12.3489919 17.8415323,13.2326613 17.8415323,15.0006048 C17.8415323,16.425 18.3997984,17.6522177 19.8508065,17.6522177 C20.7247984,17.6522177 21.3417339,17.2233871 21.6979839,16.3663306 L23.5729839,17.3038306 C23.4459677,17.5306452 22.2792339,19.6614919 19.6360887,19.6614919 C18.2637097,19.6614919 15.1627016,19.0645161 15.1627016,15.0012097 C15.1627016,11.452621 17.7616935,10.3403222 19.5556452,10.3403222 C21.4131048,10.3397177 22.7358871,11.0631048 23.5209677,12.5092742 L23.5209677,12.5092742 Z M14.9733871,0 C6.33508065,0 0,6.95927419 0,15 C0,23.3764113 6.87096774,30 14.9733871,30 C22.8320565,30 30,23.8989919 30,15 C30,6.66108871 23.5512097,0 14.9733871,0 Z M15.0260081,27.2667339 C8.21915323,27.2667339 2.70544355,21.6393145 2.70544355,15 C2.70544355,8.62379032 7.87258065,2.70544355 15.0272177,2.70544355 C21.8334677,2.70544355 27.2945565,8.11633065 27.2945565,14.9993952 C27.2939516,22.3596774 21.2655242,27.2667339 15.0260081,27.2667339 Z"/>
    <path fill="#404040" d="M57.8719758 12.3951613L57.8719758 17.5060484 56.4455645 17.5060484 56.4455645 23.5796371 52.5594758 23.5796371 52.5594758 17.5110887 51.1330645 17.5110887 51.1330645 12.3951613C51.1330645 12.1733871 51.2137097 11.9818548 51.3649194 11.8256048 51.5211694 11.6693548 51.7127016 11.5887097 51.9344758 11.5887097L57.0705645 11.5887097C57.2772177 11.5887097 57.4637097 11.6693548 57.6300403 11.8256048 57.7862903 11.9868952 57.8719758 12.1733871 57.8719758 12.3951613L57.8719758 12.3951613zM52.7560484 9.18447581C52.7560484 8.01008065 53.3356855 7.4203629 54.4949597 7.4203629 55.6542339 7.4203629 56.233871 8.01008065 56.233871 9.18447581 56.233871 10.34375 55.6542339 10.9233871 54.4949597 10.9233871 53.3356855 10.9233871 52.7560484 10.34375 52.7560484 9.18447581zM54.4798387 3C61.6270161 3 67 8.54939516 67 15.5 67 22.9143145 61.0272177 28 54.4798387 28 47.7258065 28 42 22.4808468 42 15.5 42 8.80141129 47.2772177 3 54.4798387 3zM54.5201613 5.25302419C48.5625 5.25302419 44.2530242 10.1875 44.2530242 15.5 44.2530242 21.0342742 48.8497984 25.7217742 54.5201613 25.7217742 59.7217742 25.7217742 64.7419397 21.6340726 64.7419397 15.5 64.7469758 9.7641129 60.1955645 5.25302419 54.5201613 5.25302419zM91.4798387 3C98.5262097 3 104 8.43850806 104 15.5 104 22.9193548 98.0272177 28 91.4798387 28 84.7006048 28 79 22.4153226 79 15.5 79 8.80141129 84.2772177 3 91.4798387 3zM81.8125 12.1280242C81.4395161 13.15625 81.2530242 14.2802419 81.2530242 15.5 81.2530242 21.0897177 85.8951613 25.7016129 91.5201613 25.7016129 97.6895161 25.7016129 100.451613 20.5705645 100.517137 20.4546371L95.8094758 18.3578629C95.421371 20.2278226 93.7328629 21.0292339 92.3719758 21.1502016L92.3719758 23.0705645 90.9203629 23.0705645 90.9203629 21.1451613C89.5342742 21.1300403 88.2691532 20.6310484 87.125 19.6481855L88.84375 17.9092742C90.4415323 19.391129 93.1985887 19.5120968 93.1985887 17.7983871 93.1985887 17.4858871 93.0877016 17.233871 92.8659274 17.0372984 92.1502016 16.734879 92.7752016 17.0322581 81.8125 12.1280242zM91.5201613 5.2328629C89.5846774 5.2328629 85.8548387 5.67137097 82.9264113 9.9203629L87.7046371 12.0625C88.2086694 10.484879 89.7409274 9.90020161 90.9203629 9.8296371L90.9203629 7.90927419 92.3719758 7.90927419 92.3719758 9.8296371C93.516129 9.89012097 94.5594758 10.2782258 95.4969758 10.9889113L93.8689516 12.6622984C91.7167339 11.1552419 89.6602823 12.2590726 90.3407258 13.2217742 93.0322581 14.4364919 92.5483871 14.2197581 95.0282258 15.3185484L101.434476 18.1764113C101.641129 17.2993952 101.746976 16.4072581 101.746976 15.5 101.746976 12.6270161 100.748992 10.2076613 98.7580645 8.24697581 96.7772177 6.2358871 94.3629032 5.2328629 91.5201613 5.2328629z"/>
  </g>
</svg>
