<svg xmlns="http://www.w3.org/2000/svg" width="25" height="17" viewBox="0 0 25 17">
  <path fill="#E41367" d="M23.5167774,0 L3.74905147,0 C3.18524526,0 2.72658289,0.458704968 2.72658289,1.02246858 L2.72658289,1.36329145 L1.02246858,1.36329145 C0.457767706,1.36329145 0,1.82105915 0,2.38576003 L0,14.3145602 C0,15.4439619 0.915535411,16.3594973 2.04493717,16.3594973 L23.5167774,16.3594973 C24.080541,16.3594973 24.539246,15.9007924 24.539246,15.3370288 L24.539246,1.02246858 C24.539246,0.458704968 24.080541,0 23.5167774,0 Z M1.36329145,14.3145602 L1.36329145,2.72658289 L2.72658289,2.72658289 L2.72658289,14.3145602 C2.72658289,14.6904026 2.42077958,14.9962059 2.04493717,14.9962059 C1.66909476,14.9962059 1.36329145,14.6904026 1.36329145,14.3145602 Z M23.1759546,14.9962059 L3.9730573,14.9962059 C4.05049705,14.7772924 4.09000333,14.546767 4.08987434,14.3145602 L4.08987434,1.36329145 L23.1759546,1.36329145 L23.1759546,14.9962059 Z M5.96440007,10.9063316 L13.1216802,10.9063316 C13.4040093,10.9063316 13.6329145,10.6774264 13.6329145,10.3950973 L13.6329145,3.23781718 C13.6329145,2.95548804 13.4040093,2.72658289 13.1216802,2.72658289 L5.96440007,2.72658289 C5.68207094,2.72658289 5.45316578,2.95548804 5.45316578,3.23781718 L5.45316578,10.3950973 C5.45316578,10.6774264 5.68207094,10.9063316 5.96440007,10.9063316 Z M6.81645723,4.08987434 L12.269623,4.08987434 L12.269623,9.54304012 L6.81645723,9.54304012 L6.81645723,4.08987434 Z M5.45316578,13.1216802 L5.45316578,12.7808573 C5.45316578,12.4985282 5.68207094,12.269623 5.96440007,12.269623 L13.1216802,12.269623 C13.4040093,12.269623 13.6329145,12.4985282 13.6329145,12.7808573 L13.6329145,13.1216802 C13.6329145,13.4040093 13.4040093,13.6329145 13.1216802,13.6329145 L5.96440007,13.6329145 C5.68207094,13.6329145 5.45316578,13.4040093 5.45316578,13.1216802 Z M14.9962059,13.1216802 L14.9962059,12.7808573 C14.9962059,12.4985282 15.2251111,12.269623 15.5074402,12.269623 L21.3014288,12.269623 C21.583758,12.269623 21.8126631,12.4985282 21.8126631,12.7808573 L21.8126631,13.1216802 C21.8126631,13.4040093 21.583758,13.6329145 21.3014288,13.6329145 L15.5074402,13.6329145 C15.2251111,13.6329145 14.9962059,13.4040093 14.9962059,13.1216802 Z M14.9962059,10.3950973 L14.9962059,10.0542744 C14.9962059,9.77194527 15.2251111,9.54304012 15.5074402,9.54304012 L21.3014288,9.54304012 C21.583758,9.54304012 21.8126631,9.77194527 21.8126631,10.0542744 L21.8126631,10.3950973 C21.8126631,10.6774264 21.583758,10.9063316 21.3014288,10.9063316 L15.5074402,10.9063316 C15.2251111,10.9063316 14.9962059,10.6774264 14.9962059,10.3950973 Z M14.9962059,4.94193149 L14.9962059,4.60110863 C14.9962059,4.31877949 15.2251111,4.08987434 15.5074402,4.08987434 L21.3014288,4.08987434 C21.583758,4.08987434 21.8126631,4.31877949 21.8126631,4.60110863 L21.8126631,4.94193149 C21.8126631,5.22426063 21.583758,5.45316578 21.3014288,5.45316578 L15.5074402,5.45316578 C15.2251111,5.45316578 14.9962059,5.22426063 14.9962059,4.94193149 Z M14.9962059,7.66851438 L14.9962059,7.32769152 C14.9962059,7.04536238 15.2251111,6.81645723 15.5074402,6.81645723 L21.3014288,6.81645723 C21.583758,6.81645723 21.8126631,7.04536238 21.8126631,7.32769152 L21.8126631,7.66851438 C21.8126631,7.95084352 21.583758,8.17974867 21.3014288,8.17974867 L15.5074402,8.17974867 C15.2251111,8.17974867 14.9962059,7.95084352 14.9962059,7.66851438 Z" transform="translate(0 .37)"/>
</svg>
