<?xml version="1.0" encoding="utf-8"?>
<svg version="1.1" xmlns:xlink="http://www.w3.org/1999/xlink" width="53px" height="41px" xmlns="http://www.w3.org/2000/svg">
  <g transform="matrix(1 0 0 1 -24 -1740 )">
    <path d="M 0 26.3571428571429  C 0 31.1892857142856  1.29678914835164 35.7157589285714  3.55456730769232 39.6089285714285  C 4.06509271978022 40.4893303571428  5.03791208791209 41  6.05168269230769 41  C 6.05168269230769 41  46.3658997252747 41  46.3658997252747 41  C 47.3796703296703 41  48.3524896978022 40.4893303571428  48.8630151098901 39.6089285714285  C 51.1207932692308 35.7157589285714  52.4175824175824 31.1892857142856  52.4175824175824 26.3571428571429  C 52.4175824175824 11.8003125  40.6836881868132 0  26.2087912087912 0  C 11.7338942307692 0  0 11.8003125  0 26.3571428571429  Z M 46.3658997252748 38.0714285714285  C 46.3658997252748 38.0714285714285  6.06988324175827 38.1336607142857  6.06988324175827 38.1336607142857  C 4.00412087912092 34.5708705357144  2.91208791208795 30.4992410714285  2.91208791208795 26.3571428571429  C 2.91208791208795 13.4384821428571  13.3628434065934 2.92857142857146  26.2087912087912 2.92857142857146  C 39.054739010989 2.92857142857146  49.5054945054945 13.4384821428571  49.5054945054945 26.3571428571429  C 49.5054945054945 30.4992410714285  48.4134615384616 34.5708705357144  46.3658997252748 38.0714285714285  Z M 32.0338770604395 29.2857142857146  C 32.0338770604395 27.2494419642861  30.9982657967032 25.4584375000003  29.4293784340659 24.4087276785719  C 29.4293784340659 24.4087276785719  34.137860576923 10.7286383928576  34.137860576923 10.7286383928576  C 34.3990384615384 9.96537946428613  33.9977163461538 9.1307366071433  33.2360233516483 8.86625000000033  C 32.4907108516483 8.61183035714339  31.6489354395604 9.00810267857179  31.3850274725274 9.7713616071433  C 31.3850274725274 9.7713616071433  26.6683550824175 23.4752455357148  26.6683550824175 23.4752455357148  C 26.5145604395604 23.4633482142862  26.3671359890109 23.4285714285719  26.2097012362637 23.4285714285719  C 22.9927541208791 23.4285714285719  20.3855254120878 26.0505580357146  20.3855254120878 29.2857142857146  C 20.3855254120878 32.5208705357146  22.9927541208791 35.1428571428575  26.2097012362637 35.1428571428575  C 29.4266483516483 35.1428571428575  32.0338770604395 32.5208705357146  32.0338770604395 29.2857142857146  Z M 16.0164835164835 13.9107142857139  C 16.0164835164835 12.6971874999996  15.039114010989 11.7142857142854  13.8324175824175 11.7142857142854  C 12.6257211538461 11.7142857142854  11.6483516483516 12.6971874999996  11.6483516483516 13.9107142857139  C 11.6483516483516 15.1242410714283  12.6257211538461 16.1071428571425  13.8324175824175 16.1071428571425  C 15.039114010989 16.1071428571425  16.0164835164835 15.1242410714283  16.0164835164835 13.9107142857139  Z M 38.5851648351648 11.7142857142854  C 37.3784684065934 11.7142857142854  36.4010989010989 12.6971874999996  36.4010989010989 13.9107142857139  C 36.4010989010989 15.1242410714283  37.3784684065934 16.1071428571425  38.5851648351648 16.1071428571425  C 39.7918612637362 16.1071428571425  40.7692307692307 15.1242410714283  40.7692307692307 13.9107142857139  C 40.7692307692307 12.6971874999996  39.7918612637362 11.7142857142854  38.5851648351648 11.7142857142854  Z M 41.4972527472527 26.3571428571432  C 41.4972527472527 27.5706696428575  42.4746222527472 28.5535714285717  43.6813186813187 28.5535714285717  C 44.8880151098901 28.5535714285717  45.8653846153846 27.5706696428575  45.8653846153846 26.3571428571432  C 45.8653846153846 25.1436160714288  44.8880151098901 24.1607142857146  43.6813186813187 24.1607142857146  C 42.4746222527472 24.1607142857146  41.4972527472527 25.1436160714288  41.4972527472527 26.3571428571432  Z M 8.73626373626369 24.1607142857146  C 7.52956730769227 24.1607142857146  6.55219780219776 25.1436160714288  6.55219780219776 26.3571428571432  C 6.55219780219776 27.5706696428575  7.52956730769227 28.5535714285717  8.73626373626369 28.5535714285717  C 9.94296016483512 28.5535714285717  10.9203296703296 27.5706696428575  10.9203296703296 26.3571428571432  C 10.9203296703296 25.1436160714288  9.94296016483512 24.1607142857146  8.73626373626369 24.1607142857146  Z M 24.0247252747253 8.78571428571392  C 24.0247252747253 9.99924107142826  25.0020947802198 10.9821428571425  26.2087912087912 10.9821428571425  C 27.4154876373627 10.9821428571425  28.3928571428572 9.99924107142826  28.3928571428572 8.78571428571392  C 28.3928571428572 7.57218749999958  27.4154876373627 6.58928571428538  26.2087912087912 6.58928571428538  C 25.0020947802198 6.58928571428538  24.0247252747253 7.57218749999958  24.0247252747253 8.78571428571392  Z M 26.2087912087912 26.3571428571432  C 27.8140796703297 26.3571428571432  29.1208791208792 27.6713392857146  29.1208791208792 29.2857142857146  C 29.1208791208792 30.9000892857147  27.8140796703297 32.2142857142861  26.2087912087912 32.2142857142861  C 24.6035027472528 32.2142857142861  23.2967032967033 30.9000892857147  23.2967032967033 29.2857142857146  C 23.2967032967033 27.6713392857146  24.6035027472528 26.3571428571432  26.2087912087912 26.3571428571432  Z " fill-rule="nonzero" fill="#6c41a0" stroke="none" transform="matrix(1 0 0 1 24 1740 )" />
  </g>
</svg>