<svg xmlns="http://www.w3.org/2000/svg" width="52" height="40" viewBox="0 0 52 40">
  <path fill="#05d7bd" d="M25.7142857,10.7142857 C26.8982143,10.7142857 27.8571429,9.75535714 27.8571429,8.57142857 C27.8571429,7.3875 26.8982143,6.42857143 25.7142857,6.42857143 C24.5303571,6.42857143 23.5714286,7.3875 23.5714286,8.57142857 C23.5714286,9.75535714 24.5303571,10.7142857 25.7142857,10.7142857 Z M13.5714286,11.4285714 C12.3875,11.4285714 11.4285714,12.3875 11.4285714,13.5714286 C11.4285714,14.7553571 12.3875,15.7142857 13.5714286,15.7142857 C14.7553571,15.7142857 15.7142857,14.7553571 15.7142857,13.5714286 C15.7142857,12.3875 14.7553571,11.4285714 13.5714286,11.4285714 Z M37.8571429,11.4285714 C36.6732143,11.4285714 35.7142857,12.3875 35.7142857,13.5714286 C35.7142857,14.7553571 36.6732143,15.7142857 37.8571429,15.7142857 C39.0410714,15.7142857 40,14.7553571 40,13.5714286 C40,12.3875 39.0410714,11.4285714 37.8571429,11.4285714 Z M42.8571429,23.5714286 C41.6732143,23.5714286 40.7142857,24.5303571 40.7142857,25.7142857 C40.7142857,26.8982143 41.6732143,27.8571429 42.8571429,27.8571429 C44.0410714,27.8571429 45,26.8982143 45,25.7142857 C45,24.5303571 44.0410714,23.5714286 42.8571429,23.5714286 Z M25.7142857,0 C11.5125,0 0,11.5125 0,25.7142857 C0,30.4285714 1.27232143,34.8446429 3.4875,38.6428571 C3.98839286,39.5017857 4.94285714,40 5.9375,40 L45.4910714,40 C46.4857143,40 47.4401786,39.5017857 47.9410714,38.6428571 C50.15625,34.8446429 51.4285714,30.4285714 51.4285714,25.7142857 C51.4285714,11.5125 39.9160714,0 25.7142857,0 Z M45.4910714,37.1428571 L5.95535714,37.2035714 C3.92857143,33.7276786 2.85714286,29.7553571 2.85714286,25.7142857 C2.85714286,13.1107143 13.1107143,2.85714286 25.7142857,2.85714286 C38.3178571,2.85714286 48.5714286,13.1107143 48.5714286,25.7142857 C48.5714286,29.7553571 47.5,33.7276786 45.4910714,37.1428571 Z M8.57142857,23.5714286 C7.3875,23.5714286 6.42857143,24.5303571 6.42857143,25.7142857 C6.42857143,26.8982143 7.3875,27.8571429 8.57142857,27.8571429 C9.75535714,27.8571429 10.7142857,26.8982143 10.7142857,25.7142857 C10.7142857,24.5303571 9.75535714,23.5714286 8.57142857,23.5714286 Z M32.6089286,8.65 C31.8776786,8.40178571 31.0517857,8.78839286 30.7928571,9.53303571 L26.1651786,22.9026786 C26.0142857,22.8910714 25.8696429,22.8571429 25.7151786,22.8571429 C22.5589286,22.8571429 20.0008929,25.4151786 20.0008929,28.5714286 C20.0008929,31.7276786 22.5589286,34.2857143 25.7151786,34.2857143 C28.8714286,34.2857143 31.4294643,31.7276786 31.4294643,28.5714286 C31.4294643,26.5848214 30.4133929,24.8375 28.8741071,23.8133929 L33.49375,10.4669643 C33.75,9.72232143 33.35625,8.90803571 32.6089286,8.65 Z M25.7142857,31.4285714 C24.1392857,31.4285714 22.8571429,30.1464286 22.8571429,28.5714286 C22.8571429,26.9964286 24.1392857,25.7142857 25.7142857,25.7142857 C27.2892857,25.7142857 28.5714286,26.9964286 28.5714286,28.5714286 C28.5714286,30.1464286 27.2892857,31.4285714 25.7142857,31.4285714 Z"/>
</svg>
