<?xml version="1.0" encoding="utf-8"?>
<svg version="1.1" xmlns:xlink="http://www.w3.org/1999/xlink" width="10px" height="18px" xmlns="http://www.w3.org/2000/svg">
  <g transform="matrix(1 0 0 1 -76 -1831 )">
    <path d="M 7.36111111111111 0  C 8.49537037037037 0  9.375 0.0432692307692306  10 0.129807692307692  L 10 2.98557692307692  L 8.18287037037037 2.98557692307692  C 7.51929012345679 2.98557692307692  7.07175925925926 3.11538461538462  6.84027777777778 3.375  C 6.6087962962963 3.63461538461538  6.49305555555556 4.02403846153846  6.49305555555556 4.54326923076923  L 6.49305555555556 6.58774038461538  L 9.88425925925926 6.58774038461538  L 9.43287037037037 9.78966346153846  L 6.49305555555556 9.78966346153846  L 6.49305555555556 18  L 2.95138888888889 18  L 2.95138888888889 9.78966346153846  L 0 9.78966346153846  L 0 6.58774038461538  L 2.95138888888889 6.58774038461538  L 2.95138888888889 4.22956730769231  C 2.95138888888889 2.88822115384615  3.35262345679012 1.84795673076923  4.15509259259259 1.10877403846154  C 4.95756172839506 0.369591346153848  6.02623456790124 0  7.36111111111111 0  Z " fill-rule="nonzero" fill="#6c41a0" stroke="none" transform="matrix(1 0 0 1 76 1831 )" />
  </g>
</svg>
