<?xml version="1.0" encoding="utf-8"?>
<svg version="1.1" xmlns:xlink="http://www.w3.org/1999/xlink" width="19px" height="18px" xmlns="http://www.w3.org/2000/svg">
  <g transform="matrix(1 0 0 1 -104 -1831 )">
    <path d="M 0.235026041666667 5.84877384196185  L 4.31705729166667 5.84877384196185  L 4.31705729166667 18  L 0.235026041666667 18  L 0.235026041666667 5.84877384196185  Z M 3.94596354166667 0.594686648501362  C 4.35828993055556 0.991144414168937  4.56857638888889 1.49182561307902  4.57682291666667 2.09673024523161  C 4.58506944444444 2.69346049046321  4.37684461805556 3.19209809264305  3.9521484375 3.59264305177112  C 3.52745225694444 3.99318801089918  2.96875 4.19346049046322  2.27604166666667 4.19346049046322  L 2.25130208333333 4.19346049046322  C 1.57508680555556 4.19346049046322  1.03081597222222 3.99318801089918  0.618489583333333 3.59264305177112  C 0.206163194444444 3.19209809264305  0 2.69346049046321  0 2.09673024523161  C 0 1.49182561307902  0.212348090277778 0.991144414168937  0.637044270833333 0.594686648501362  C 1.06174045138889 0.198228882833786  1.61631944444444 0  2.30078125 0  C 2.98524305555556 0  3.53363715277778 0.198228882833786  3.94596354166667 0.594686648501362  Z M 17.7135416666667 6.95844686648501  C 18.5711805555556 7.88623978201635  19 9.24523160762943  19 11.0354223433243  L 19 18  L 14.9303385416667 18  L 14.9303385416667 11.5013623978202  C 14.9303385416667 10.6430517711172  14.7633463541667 9.97070844686649  14.4293619791667 9.48433242506812  C 14.0953776041667 8.99795640326975  13.5737847222222 8.75476839237057  12.8645833333333 8.75476839237057  C 12.3450520833333 8.75476839237057  11.9100477430556 8.89577656675749  11.5595703125 9.17779291553133  C 11.2090928819444 9.45980926430518  10.947265625 9.80926430517711  10.7740885416667 10.2261580381471  C 10.6833767361111 10.4713896457766  10.6380208333333 10.8024523160763  10.6380208333333 11.2193460490463  L 10.6380208333333 18  L 6.568359375 18  C 6.58485243055556 14.7384196185286  6.59309895833333 12.0940054495913  6.59309895833333 10.066757493188  C 6.59309895833333 8.03950953678474  6.58897569444444 6.82970027247956  6.58072916666667 6.43732970027248  L 6.568359375 5.84877384196185  L 10.6380208333333 5.84877384196185  L 10.6380208333333 7.61444141689373  L 10.61328125 7.61444141689373  C 10.7782118055556 7.35286103542234  10.947265625 7.12397820163488  11.1204427083333 6.92779291553134  C 11.2936197916667 6.73160762942779  11.5265842013889 6.51907356948229  11.8193359375 6.29019073569482  C 12.1120876736111 6.06130790190736  12.4708116319444 5.88351498637602  12.8955078125 5.75681198910082  C 13.3202039930556 5.63010899182561  13.7923177083333 5.56675749318801  14.3118489583333 5.56675749318801  C 15.7220052083333 5.56675749318801  16.8559027777778 6.03065395095368  17.7135416666667 6.95844686648501  Z " fill-rule="nonzero" fill="#6c41a0" stroke="none" transform="matrix(1 0 0 1 104 1831 )" />
  </g>
</svg>
