<?xml version="1.0" encoding="utf-8"?>
<svg version="1.1" xmlns:xlink="http://www.w3.org/1999/xlink" width="22px" height="18px" xmlns="http://www.w3.org/2000/svg">
  <g transform="matrix(1 0 0 1 -141 -1831 )">
    <path d="M 19.4035532994924 2.840625  C 20.2690355329949 2.746875  21.1345177664975 2.5125  22 2.1375  C 21.3764805414552 3.05625  20.6226734348562 3.8390625  19.738578680203 4.4859375  C 19.7478849407783 4.6171875  19.752538071066 4.8140625  19.752538071066 5.0765625  C 19.752538071066 6.2953125  19.5757191201354 7.51171875  19.2220812182741 8.72578125  C 18.8684433164129 9.93984375  18.3310067681895 11.1046875  17.6097715736041 12.2203125  C 16.8885363790186 13.3359375  16.0300338409475 14.32265625  15.0342639593909 15.18046875  C 14.0384940778342 16.03828125  12.837986463621 16.72265625  11.4327411167513 17.23359375  C 10.0274957698816 17.74453125  8.52453468697124 18  6.9238578680203 18  C 4.40186125211506 18  2.09390862944162 17.3203125  0 15.9609375  C 0.325719120135364 15.9984375  0.688663282571912 16.0171875  1.08883248730964 16.0171875  C 3.18274111675127 16.0171875  5.04864636209814 15.3703125  6.68654822335025 14.0765625  C 5.70939086294416 14.0578125  4.83460236886633 13.75546875  4.06218274111675 13.16953125  C 3.28976311336717 12.58359375  2.7593062605753 11.8359375  2.47081218274112 10.9265625  C 2.77791878172589 10.9734375  3.06175972927242 10.996875  3.32233502538071 10.996875  C 3.72250423011844 10.996875  4.11802030456853 10.9453125  4.50888324873096 10.8421875  C 3.4665820642978 10.6265625  2.60342639593909 10.10390625  1.91941624365482 9.27421875  C 1.23540609137056 8.44453125  0.893401015228427 7.48125  0.893401015228426 6.384375  L 0.893401015228426 6.328125  C 1.52622673434856 6.684375  2.20558375634518 6.8765625  2.93147208121827 6.9046875  C 2.31725888324873 6.4921875  1.82868020304569 5.953125  1.46573604060914 5.2875  C 1.10279187817259 4.621875  0.921319796954315 3.9  0.921319796954315 3.121875  C 0.921319796954315 2.296875  1.12605752961083 1.5328125  1.53553299492386 0.829687500000001  C 2.66159052453469 2.2265625  4.03193739424704 3.34453125  5.64657360406091 4.18359375  C 7.26120981387479 5.02265625  8.98984771573604 5.4890625  10.8324873096447 5.5828125  C 10.7580372250423 5.2265625  10.7208121827411 4.8796875  10.7208121827411 4.5421875  C 10.7208121827411 3.2859375  11.1605329949239 2.21484375  12.0399746192893 1.32890625  C 12.9194162436548 0.442968750000001  13.9826565143824 0  15.2296954314721 0  C 16.5325719120135 0  17.6307106598985 0.478125000000001  18.5241116751269 1.434375  C 19.5384940778342 1.2375  20.492385786802 0.871875  21.3857868020305 0.337500000000001  C 21.0414551607445 1.415625  20.3807106598985 2.25  19.4035532994924 2.840625  Z " fill-rule="nonzero" fill="#6c41a0" stroke="none" transform="matrix(1 0 0 1 141 1831 )" />
  </g>
</svg>
