<?xml version="1.0" encoding="utf-8"?>
<svg version="1.1" xmlns:xlink="http://www.w3.org/1999/xlink" width="26px" height="18px" xmlns="http://www.w3.org/2000/svg">
  <g transform="matrix(1 0 0 1 -181 -1831 )">
    <path d="M 10.3188405797101 5.12857142857143  L 10.3188405797101 12.3142857142857  L 17.3333333333333 8.74285714285714  L 10.3188405797101 5.12857142857143  Z M 3.91304347826087 0.257142857142856  C 6.33816425120773 0.0857142857142854  9.3671497584541 0  13 0  C 14.6231884057971 0  16.1908212560386 0.0214285714285714  17.7028985507246 0.0642857142857141  C 19.2149758454106 0.107142857142857  20.3236714975845 0.152380952380951  21.0289855072464 0.199999999999999  L 22.0869565217391 0.257142857142856  C 22.0966183574879 0.257142857142856  22.1787439613527 0.264285714285713  22.3333333333333 0.278571428571428  C 22.487922705314 0.292857142857144  22.5990338164251 0.307142857142858  22.6666666666667 0.321428571428572  C 22.7342995169082 0.335714285714287  22.8478260869565 0.357142857142858  23.0072463768116 0.385714285714286  C 23.1666666666667 0.414285714285715  23.304347826087 0.45238095238095  23.4202898550725 0.5  C 23.536231884058 0.547619047619046  23.6714975845411 0.609523809523807  23.8260869565217 0.685714285714285  C 23.9806763285024 0.76190476190476  24.1304347826087 0.854761904761904  24.2753623188406 0.964285714285715  C 24.4202898550725 1.07380952380952  24.56038647343 1.2  24.695652173913 1.34285714285714  C 24.7536231884058 1.4  24.8285024154589 1.48809523809524  24.9202898550725 1.60714285714286  C 25.012077294686 1.72619047619047  25.1521739130435 2.0047619047619  25.3405797101449 2.44285714285714  C 25.5289855072464 2.88095238095238  25.6570048309179 3.36190476190476  25.7246376811594 3.88571428571429  C 25.8019323671498 4.49523809523809  25.8623188405797 5.14523809523809  25.9057971014493 5.83571428571429  C 25.9492753623188 6.52619047619048  25.975845410628 7.06666666666666  25.9855072463768 7.45714285714286  L 25.9855072463768 8.02857142857143  L 25.9855072463768 9.97142857142857  C 25.9951690821256 11.3523809523809  25.9082125603865 12.7333333333333  25.7246376811594 14.1142857142857  C 25.6570048309179 14.6380952380952  25.536231884058 15.1119047619048  25.3623188405797 15.5357142857143  C 25.1884057971015 15.9595238095238  25.0338164251208 16.252380952381  24.8985507246377 16.4142857142857  L 24.695652173913 16.6571428571429  C 24.56038647343 16.8  24.4202898550725 16.9261904761905  24.2753623188406 17.0357142857143  C 24.1304347826087 17.1452380952381  23.9806763285024 17.2357142857143  23.8260869565217 17.3071428571429  C 23.6714975845411 17.3785714285714  23.536231884058 17.4380952380952  23.4202898550725 17.4857142857143  C 23.304347826087 17.5333333333333  23.1666666666667 17.5714285714286  23.0072463768116 17.6  C 22.8478260869565 17.6285714285714  22.731884057971 17.65  22.6594202898551 17.6642857142857  C 22.5869565217391 17.6785714285714  22.475845410628 17.6928571428571  22.3260869565217 17.7071428571429  C 22.1763285024155 17.7214285714286  22.0966183574879 17.7285714285714  22.0869565217391 17.7285714285714  C 19.6618357487923 17.9095238095238  16.6328502415459 18  13 18  C 11 17.9809523809524  9.26328502415459 17.95  7.78985507246377 17.9071428571429  C 6.31642512077295 17.8642857142857  5.34782608695652 17.8285714285714  4.88405797101449 17.8  L 4.17391304347826 17.7428571428571  L 3.65217391304348 17.6857142857143  C 3.30434782608696 17.6380952380952  3.04106280193237 17.5904761904762  2.86231884057971 17.5428571428571  C 2.68357487922705 17.4952380952381  2.43719806763285 17.3952380952381  2.1231884057971 17.2428571428571  C 1.80917874396135 17.0904761904762  1.53623188405797 16.8952380952381  1.30434782608696 16.6571428571429  C 1.2463768115942 16.6  1.17149758454106 16.5119047619048  1.07971014492754 16.3928571428571  C 0.98792270531401 16.2738095238095  0.847826086956522 15.9952380952381  0.659420289855073 15.5571428571429  C 0.471014492753623 15.1190476190476  0.342995169082126 14.6380952380952  0.27536231884058 14.1142857142857  C 0.198067632850242 13.5047619047619  0.13768115942029 12.8547619047619  0.0942028985507246 12.1642857142857  C 0.0507246376811594 11.4738095238095  0.0241545893719807 10.9333333333333  0.0144927536231884 10.5428571428571  L 0.0144927536231884 9.97142857142857  L 0.0144927536231884 8.02857142857143  C 0.00483091787439613 6.64761904761905  0.0917874396135266 5.26666666666667  0.27536231884058 3.88571428571429  C 0.342995169082126 3.36190476190476  0.463768115942029 2.88809523809523  0.63768115942029 2.46428571428571  C 0.811594202898551 2.04047619047619  0.966183574879227 1.74761904761905  1.10144927536232 1.58571428571429  L 1.30434782608696 1.34285714285714  C 1.43961352657005 1.2  1.57971014492754 1.07380952380952  1.72463768115942 0.964285714285715  C 1.8695652173913 0.854761904761904  2.01932367149758 0.76190476190476  2.17391304347826 0.685714285714285  C 2.32850241545894 0.609523809523807  2.46376811594203 0.547619047619046  2.57971014492754 0.5  C 2.69565217391304 0.45238095238095  2.83333333333333 0.414285714285715  2.99275362318841 0.385714285714286  C 3.15217391304348 0.357142857142858  3.26570048309179 0.335714285714287  3.33333333333333 0.321428571428572  C 3.40096618357488 0.307142857142858  3.51207729468599 0.292857142857144  3.66666666666667 0.278571428571428  C 3.82125603864734 0.264285714285713  3.90338164251208 0.257142857142856  3.91304347826087 0.257142857142856  Z " fill-rule="nonzero" fill="#e41367" stroke="none" transform="matrix(1 0 0 1 181 1831 )" />
  </g>
</svg>